<?xml version="1.0" standalone="no"?>
<!DOCTYPE svg PUBLIC "-//W3C//DTD SVG 1.1//EN" "http://www.w3.org/Graphics/SVG/1.1/DTD/svg11.dtd" >
<svg>
<metadata>
Created by FontForge 20110222 at Wed Mar 11 16:04:49 2015
 By deploy user
URW Software, Copyright 1993 by URW
</metadata>
<defs>
<font id="FuturaT-MediObli" horiz-adv-x="512" >
  <font-face 
    font-family="FuturaTMed"
    font-weight="400"
    font-style="oblique"
    font-stretch="normal"
    units-per-em="2048"
    panose-1="0 0 0 0 0 0 0 0 0 0"
    ascent="1638"
    descent="-410"
    x-height="833"
    cap-height="1365"
    bbox="-328 -478 2158 1880"
    underline-thickness="186"
    underline-position="-115"
    slope="70"
    unicode-range="U+0020-F002"
  />
<missing-glyph 
d="M51 0v1365h410v-1365h-410zM410 51v1263h-308v-1263h308z" />
    <glyph glyph-name=".notdef" 
d="M51 0v1365h410v-1365h-410zM410 51v1263h-308v-1263h308z" />
    <glyph glyph-name="glyph1" horiz-adv-x="0" 
 />
    <glyph glyph-name="glyph2" 
 />
    <glyph glyph-name="space" unicode=" " 
 />
    <glyph glyph-name="exclam" unicode="!" horiz-adv-x="564" 
d="M239 218q52 0 86 -34.5t34 -87.5q0 -49 -34 -83t-83 -34q-52 0 -87 36t-35 88q0 49 34 81.5t85 33.5zM487 1365l-124 -1007h-193l124 1007h193z" />
    <glyph glyph-name="quotedbl" unicode="&#x22;" horiz-adv-x="729" 
d="M321 816h-144l30 549h219zM638 816h-144l30 549h219z" />
    <glyph glyph-name="numbersign" unicode="#" horiz-adv-x="1106" 
d="M1109 982l-19 -156h-206l-47 -253h197l-19 -156h-207l-78 -424l-154 21l75 403h-235l-79 -424l-157 21l76 406h-202l19 153h214l47 253h-204l19 156h214l73 395l154 -20l-70 -375h233l74 395l154 -20l-70 -375h198zM725 826h-233l-47 -253h234z" />
    <glyph glyph-name="dollar" unicode="$" horiz-adv-x="1161" 
d="M607 -24l-26 -208h-150l26 212q-121 20 -202.5 82t-152.5 190l154 104q40 -80 78 -119q82 -83 209 -83q103 0 164.5 60t61.5 160q0 78 -42.5 126.5t-181.5 127.5q-154 87 -207 159q-69 93 -69 218q0 157 98.5 262t262.5 124l22 179h151l-24 -189q157 -41 257 -192
l-133 -127q-91 149 -231 149q-88 0 -150 -63q-57 -57 -57 -136q0 -68 44.5 -120t157.5 -116q165 -92 221 -162q79 -97 79 -241q0 -164 -96.5 -270t-263.5 -127z" />
    <glyph glyph-name="percent" unicode="%" horiz-adv-x="1451" 
d="M419 1385q77 0 134 -54q87 -82 87 -249q0 -170 -77 -298q-69 -115 -193 -115q-95 0 -156 70q-71 82 -71 237q0 184 89 304q76 103 187 105zM420 1277q-33 0 -63.5 -23.5t-49.5 -64.5q-48 -99 -48 -223q0 -88 28 -138t78 -50q73 0 113 88q46 99 46 220q0 89 -27.5 139.5
t-76.5 51.5zM1280 1348l-973 -1389l-83 58l973 1389zM1136 696q77 0 135 -54q87 -83 87 -250q0 -169 -77 -298q-69 -115 -194 -115q-95 0 -156 70q-71 82 -71 238q0 183 89 304q76 103 187 105zM1138 588q-70 0 -113 -88q-48 -99 -48 -225q0 -87 28 -137t78 -50q73 0 113 88
q46 98 46 220q0 90 -27.5 140.5t-76.5 51.5z" />
    <glyph glyph-name="ampersand" unicode="&#x26;" horiz-adv-x="1276" 
d="M1019 268l186 -268h-233l-101 146q-85 -61 -122 -85q-129 -81 -259 -81q-146 0 -262 107q-130 121 -130 292q0 175 159 317q39 34 160 112q-102 160 -102 289q0 123 78 202q86 87 230 87q187 0 272 -131q52 -79 52 -173q0 -206 -270 -328l235 -334l156 145l127 -145z
M582 897q104 52 145.5 96t41.5 104q0 57 -37.5 94.5t-94.5 37.5q-56 0 -95 -41t-39 -100q0 -66 79 -191zM513 665q-119 -73 -170.5 -139.5t-51.5 -145.5q0 -68 39 -126q63 -93 173 -93q104 0 267 132z" />
    <glyph glyph-name="quotesingle" unicode="'" horiz-adv-x="412" 
d="M321 816h-144l30 549h219z" />
    <glyph glyph-name="parenleft" unicode="(" horiz-adv-x="617" 
d="M290 -380q-135 352 -135 762q0 583 348 1128l140 -78q-171 -281 -248 -531t-77 -528q0 -336 120 -694z" />
    <glyph glyph-name="parenright" unicode=")" horiz-adv-x="617" 
d="M351 1510q135 -351 135 -762q0 -582 -348 -1128l-140 79q171 281 248 530.5t77 527.5q0 337 -120 694z" />
    <glyph glyph-name="asterisk" unicode="*" horiz-adv-x="1161" 
d="M606 1262l15 240l171 -21l-43 -237l233 60l33 -169l-239 -32l129 -204l-150 -83l-105 217l-154 -185l-125 117l174 166l-224 89l73 156z" />
    <glyph glyph-name="plus" unicode="+" horiz-adv-x="1161" 
d="M134 615v164h391v376h166v-376h391v-164h-391v-385h-166v385h-391z" />
    <glyph glyph-name="comma" unicode="," horiz-adv-x="498" 
d="M336 252l-311 -521l-121 66l280 539z" />
    <glyph glyph-name="hyphen" unicode="-" horiz-adv-x="382" 
d="M387 508l-19 -155h-382l19 155h382z" />
    <glyph glyph-name="period" unicode="." horiz-adv-x="498" 
d="M199 218q49 2 86 -34q39 -37 39 -88q0 -37 -24 -68q-38 -48 -96 -48q-49 0 -83.5 35.5t-34.5 87.5q0 42 24 72q32 40 89 43z" />
    <glyph glyph-name="slash" unicode="/" horiz-adv-x="867" 
d="M920 1453l-845 -1850l-137 62l845 1849z" />
    <glyph glyph-name="zero" unicode="0" horiz-adv-x="1161" 
d="M661 1385q148 0 255 -102q165 -159 165 -490q0 -157 -40 -314.5t-111 -276.5q-72 -123 -197 -185q-78 -38 -174 -38q-181 0 -296 134q-137 161 -137 466q0 364 175 603q147 200 360 203zM660 1202q-93 0 -175 -89q-87 -95 -132 -295q-30 -130 -30 -264q0 -175 59 -285
q57 -107 168 -107q95 0 172 84q86 93 130 289q31 136 31 267q0 186 -59 292q-58 105 -164 108z" />
    <glyph glyph-name="one" unicode="1" horiz-adv-x="1161" 
d="M804 1365l-169 -1365h-202l146 1177h-269l92 188h402z" />
    <glyph glyph-name="two" unicode="2" horiz-adv-x="1161" 
d="M962 188l-24 -188h-884l545 600q128 142 157 177t52 78q33 59 33 131q0 101 -59.5 159t-163.5 58q-116 0 -174 -67t-71 -216h-191q13 200 83 300q57 82 151 124t207 42q176 0 287 -96q127 -110 127 -302q0 -116 -47.5 -203t-201.5 -255l-316 -342h490z" />
    <glyph glyph-name="three" unicode="3" horiz-adv-x="1161" 
d="M111 340h188q14 -85 72 -131t153 -46q120 0 190 76q61 67 61 166q0 107 -66.5 158t-206.5 53l22 180q27 -1 49 -1q122 0 174 75q45 66 45 155q0 82 -48.5 130t-132.5 48q-95 0 -144.5 -53.5t-58.5 -167.5h-179q12 179 86 270q108 134 317 134q166 0 261 -95t95 -253
q0 -122 -53 -201t-168 -129q205 -80 205 -312q0 -178 -114 -292q-122 -124 -335 -124q-179 0 -286 94t-126 266z" />
    <glyph glyph-name="four" unicode="4" horiz-adv-x="1161" 
d="M866 253l-33 -253h-202l33 253h-636l993 1262l-133 -1087h127l-22 -175h-127zM686 428l59 481l-370 -481h311z" />
    <glyph glyph-name="five" unicode="5" horiz-adv-x="1161" 
d="M1017 1365l-23 -188h-419l-90 -274q61 12 108 12q136 0 235 -67q165 -110 165 -372q0 -197 -109 -330q-135 -166 -372 -166q-152 0 -261.5 62t-193.5 197l140 113q78 -106 147 -147.5t166 -41.5q141 0 214 93q72 92 72 226q0 118 -64 190q-74 85 -211 85
q-72 0 -136.5 -21t-158.5 -74l225 703h566z" />
    <glyph glyph-name="six" unicode="6" horiz-adv-x="1161" 
d="M550 887q63 14 115 14q163 0 267 -97q122 -113 122 -311q0 -208 -140 -358q-146 -156 -359 -156q-202 0 -328 134q-121 128 -121 311q0 189 177 428l425 572l152 -119zM605 733q-110 0 -197 -77q-105 -94 -105 -240q0 -141 99 -210q63 -44 154 -44q136 0 223 99
q79 88 79 212q0 137 -94 208q-68 51 -159 52z" />
    <glyph glyph-name="seven" unicode="7" horiz-adv-x="1161" 
d="M1215 1365l-936 -1390l-161 98l747 1104h-658l23 188h985z" />
    <glyph glyph-name="eight" unicode="8" horiz-adv-x="1161" 
d="M826 727q72 -43 108 -86q81 -101 81 -250q0 -174 -119 -291q-122 -120 -316 -120q-191 0 -315 111q-122 110 -122 290q0 132 64 221.5t197 143.5q-156 107 -156 280q0 165 117 265q111 94 285 94q188 0 292 -117q85 -95 85 -240q0 -107 -46.5 -176.5t-154.5 -124.5z
M642 1202q-86 0 -142 -54t-56 -137q0 -62 35 -108q53 -71 152 -71q87 0 143 52.5t56 134.5t-51.5 132t-136.5 51zM586 627q-102 0 -171 -61q-75 -66 -75 -178q0 -100 66 -162.5t171 -62.5q123 0 186 82q56 72 56 163q0 98 -64 158t-169 61z" />
    <glyph glyph-name="nine" unicode="9" horiz-adv-x="1161" 
d="M643 478q-52 -13 -97 -13q-134 0 -230 59q-83 51 -128 138q-48 95 -48 213q0 210 139 356q147 154 366 154q196 0 321 -134q120 -128 120 -311q0 -189 -176 -427l-425 -572l-152 119zM638 1202q-114 0 -198 -75q-103 -93 -103 -247q0 -135 99 -203q63 -44 153 -44
q135 0 222 99q79 90 79 209q0 137 -93 208q-68 52 -159 53z" />
    <glyph glyph-name="colon" unicode=":" horiz-adv-x="498" 
d="M199 218q49 2 86 -34q39 -37 39 -88q0 -37 -24 -68q-38 -48 -96 -48q-49 0 -83.5 35.5t-34.5 87.5q0 42 24 72q32 40 89 43zM278 859q49 2 86 -34q39 -37 39 -87q0 -37 -25 -69q-37 -48 -95 -48q-49 0 -83.5 36t-34.5 87q0 42 24 72q32 41 89 43z" />
    <glyph glyph-name="semicolon" unicode=";" horiz-adv-x="498" 
d="M270 859q49 2 86 -34q39 -37 39 -87q0 -38 -24 -69q-38 -48 -96 -48q-49 0 -83.5 35.5t-34.5 86.5q0 43 24 73q32 40 89 43zM336 252l-311 -521l-121 66l280 539z" />
    <glyph glyph-name="less" unicode="&#x3c;" horiz-adv-x="1024" 
d="M980 1213v-203l-670 -317l670 -318v-202l-887 433v174z" />
    <glyph glyph-name="equal" unicode="=" horiz-adv-x="1161" 
d="M134 757v151h948v-151h-948zM134 484v151h948v-151h-948z" />
    <glyph glyph-name="greater" unicode="&#x3e;" horiz-adv-x="1024" 
d="M93 172v204l670 317l-670 317v202l887 -433v-174z" />
    <glyph glyph-name="question" unicode="?" horiz-adv-x="879" 
d="M398 218q50 0 84.5 -35.5t34.5 -86.5q0 -48 -34 -82t-82 -34q-52 0 -87 34t-35 84q0 51 34 85.5t85 34.5zM603 616h184q-12 -128 -64 -192q-86 -109 -240 -109q-135 0 -222 82q-88 84 -88 206q0 114 75 203q64 75 219 136q113 44 150 75t37 83q0 55 -38.5 92.5
t-94.5 37.5q-40 0 -74.5 -21t-52.5 -56q-22 -44 -23 -129h-175q3 160 63 241q90 121 267 121q150 0 237 -84q80 -77 80 -203q0 -106 -64 -181q-52 -60 -182 -110q-135 -52 -184 -98q-49 -48 -49 -114q0 -54 34 -87t89 -33q108 0 116 140z" />
    <glyph glyph-name="at" unicode="@" horiz-adv-x="1584" 
d="M1198 1040l-56 -465q-6 -49 -6 -92q0 -70 59 -70q30 0 56 17q57 37 91 101q58 110 58 238q0 228 -159 366q-156 135 -384 135q-249 0 -418 -171q-166 -170 -166 -414q0 -231 147 -395q165 -185 455 -185q125 0 219.5 23.5t227.5 88.5l46 -123q-241 -118 -491 -118
q-235 0 -405 96q-156 89 -249 245q-100 167 -100 366q0 197 98 360q92 154 252 246q175 100 383 100q200 0 370 -96q138 -78 218 -211q82 -137 82 -302q0 -160 -76 -300q-63 -115 -155 -161q-60 -31 -120 -31q-113 0 -154 107q-60 -61 -114.5 -86t-127.5 -25
q-148 0 -243 105q-96 106 -96 267q0 184 120 300q106 101 256 101q148 0 240 -116l12 99h130zM826 894q-90 0 -149 -69t-59 -178q0 -92 48 -154q46 -60 121 -60q98 0 168 80q71 81 71 185q0 89 -60 143q-60 52 -140 53z" />
    <glyph glyph-name="A" unicode="A" horiz-adv-x="1279" 
d="M384 321l-166 -321h-221l756 1463l471 -1463h-211l-99 321h-530zM472 496h385l-146 486z" />
    <glyph glyph-name="B" unicode="B" horiz-adv-x="1054" 
d="M274 1365h253q112 0 178.5 -20t116.5 -69q102 -100 102 -256q0 -106 -48.5 -182.5t-150.5 -132.5q98 -24 151 -70q91 -80 91 -232q0 -124 -62 -226q-83 -138 -254 -167q-60 -10 -185 -10h-360zM453 1177l-50 -408h58q142 0 199 65q61 69 61 176q0 87 -48 127t-151 40h-69
zM383 607l-51 -419h135q152 0 210 38q87 57 87 192q0 101 -60.5 145t-198.5 44h-122z" />
    <glyph glyph-name="C" unicode="C" horiz-adv-x="1250" 
d="M1257 1243l-27 -221q-178 180 -424 180q-216 0 -349 -154q-135 -157 -135 -398q0 -200 99 -325q129 -162 393 -162q106 0 185 27.5t160 91.5l-30 -239q-191 -70 -351 -70q-280 0 -457 168q-105 99 -155 240q-47 133 -47 278q0 328 207 539q191 194 472 194
q124 0 230 -34.5t229 -114.5z" />
    <glyph glyph-name="D" unicode="D" horiz-adv-x="1297" 
d="M274 1365h275q157 0 241.5 -15.5t157.5 -57.5q135 -77 212 -232q76 -154 76 -343q0 -259 -134 -454q-154 -224 -426 -254q-86 -9 -224 -9h-346zM453 1177l-121 -989h154q194 0 285 42q139 63 210 233q52 123 52 262q0 204 -103 326q-59 71 -139.5 98.5t-224.5 27.5h-113z
" />
    <glyph glyph-name="E" unicode="E" horiz-adv-x="963" 
d="M977 1365l-23 -188h-501l-43 -354h501l-22 -175h-501l-56 -460h501l-24 -188h-703l168 1365h703z" />
    <glyph glyph-name="F" unicode="F" horiz-adv-x="893" 
d="M949 1365l-24 -188h-472l-43 -352h472l-21 -175h-473l-80 -650h-202l168 1365h675z" />
    <glyph glyph-name="G" unicode="G" horiz-adv-x="1453" 
d="M843 635h547q-20 -233 -111 -382q-172 -280 -509 -280q-297 0 -481 206q-172 192 -172 477q0 185 80 353q102 216 309 316q140 68 309 68q339 0 561 -275l-133 -135q-167 220 -431 220q-243 0 -375 -174q-117 -155 -117 -369q0 -206 116 -343q130 -154 346 -154
q146 0 247.5 79.5t130.5 217.5h-338z" />
    <glyph glyph-name="H" unicode="H" horiz-adv-x="1296" 
d="M1242 1365l-168 -1365h-202l82 666h-564l-82 -666h-202l168 1365h202l-66 -535h564l66 535h202z" />
    <glyph glyph-name="I" unicode="I" horiz-adv-x="530" 
d="M476 1365l-168 -1365h-202l168 1365h202z" />
    <glyph glyph-name="J" unicode="J" horiz-adv-x="772" 
d="M718 1365l-120 -982q-16 -127 -40.5 -198t-69.5 -120q-85 -92 -236 -92q-158 0 -283 132l104 148q93 -91 171 -91q73 0 108 75t61 289l103 839h202z" />
    <glyph glyph-name="K" unicode="K" horiz-adv-x="1220" 
d="M476 1365l-71 -580l552 580h255l-636 -635l573 -730h-244l-515 666l-82 -666h-202l168 1365h202z" />
    <glyph glyph-name="L" unicode="L" horiz-adv-x="780" 
d="M476 1365l-144 -1177h386l-24 -188h-588l168 1365h202z" />
    <glyph glyph-name="M" unicode="M" horiz-adv-x="1759" 
d="M1494 1494l113 -1494h-193l-61 870l-529 -966l-293 966l-272 -870h-207l472 1461l346 -1115z" />
    <glyph glyph-name="N" unicode="N" horiz-adv-x="1489" 
d="M1434 1365l-179 -1459l-828 1057l-119 -963h-202l177 1440l829 -1056l120 981h202z" />
    <glyph glyph-name="O" unicode="O" horiz-adv-x="1606" 
d="M844 1392q283 0 471 -156q229 -190 229 -527q0 -167 -69 -322q-91 -203 -278 -314q-169 -100 -384 -100q-213 0 -381 101q-170 103 -252 297q-61 143 -61 306q0 194 87 355q63 116 171 202q194 154 467 158zM851 1202q-205 0 -348 -123q-89 -76 -136 -186
q-45 -103 -45 -217q0 -200 121 -345q139 -168 375 -168q267 0 416 209q106 148 106 339q0 251 -159 381q-130 108 -330 110z" />
    <glyph glyph-name="P" unicode="P" horiz-adv-x="1010" 
d="M274 1365h277q181 0 276 -60q76 -48 119 -132q47 -90 47 -197q0 -168 -106 -286q-121 -137 -361 -137h-150l-68 -553h-202zM453 1177l-55 -445h132q128 0 189 63q70 72 70 186q0 111 -86 165q-51 31 -163 31h-87z" />
    <glyph glyph-name="Q" unicode="Q" horiz-adv-x="1607" 
d="M1463 -56h-228l-95 102q-149 -73 -327 -73q-306 0 -499 192q-196 196 -196 508q0 315 214 522q205 198 516 198q192 0 352 -87q184 -100 271 -292q66 -143 66 -315q0 -171 -62 -307t-193 -252zM748 470h225l184 -196q176 157 176 432q0 230 -141 369q-130 128 -336 128
q-248 0 -397 -164q-138 -151 -138 -366q0 -186 109 -329q137 -182 387 -182q98 0 189 29z" />
    <glyph glyph-name="R" unicode="R" horiz-adv-x="1079" 
d="M646 577l342 -577h-214l-323 562h-74l-69 -562h-202l168 1365h268q119 0 191 -19t126 -63q61 -52 95.5 -132.5t34.5 -173.5q0 -184 -120 -295q-75 -70 -223 -105zM453 1177l-54 -438h94q90 0 142 16t87 54q63 68 63 169q0 62 -28 109.5t-75 68.5q-50 21 -145 21h-84z" />
    <glyph glyph-name="S" unicode="S" horiz-adv-x="1013" 
d="M990 1191l-134 -129q-54 77 -104.5 109t-117.5 32q-95 0 -154 -61q-55 -56 -55 -135q0 -67 41.5 -115t158.5 -117q161 -95 217 -163q78 -95 78 -242q0 -161 -95 -266q-55 -62 -141 -96.5t-184 -34.5q-185 0 -312 105q-65 54 -133 174l154 104q44 -77 78 -113
q76 -80 201 -80q108 0 168.5 57.5t60.5 160.5q0 71 -44 121t-177 129q-153 90 -205 160q-69 92 -69 219q0 154 101 260q117 123 304 123q113 0 195.5 -46t167.5 -156z" />
    <glyph glyph-name="T" unicode="T" horiz-adv-x="868" 
d="M630 1177l-145 -1177h-202l145 1177h-327l23 188h841l-23 -188h-312z" />
    <glyph glyph-name="U" unicode="U" horiz-adv-x="1348" 
d="M1294 1365l-99 -808q-18 -145 -47 -234.5t-79 -156.5q-71 -93 -177 -143t-233 -50q-228 0 -371 148q-120 125 -120 300q0 81 12 181l94 763h202l-97 -789q-8 -68 -8 -120q0 -111 49 -183q77 -110 236 -110q185 0 269 154q49 89 71 269l96 779h202z" />
    <glyph glyph-name="V" unicode="V" horiz-adv-x="1210" 
d="M1306 1365l-777 -1428l-430 1428h205l283 -952l500 952h219z" />
    <glyph glyph-name="W" unicode="W" horiz-adv-x="1883" 
d="M1979 1365l-714 -1425l-270 956l-477 -971l-419 1440h207l256 -933l480 980l274 -955l447 908h216z" />
    <glyph glyph-name="X" unicode="X" horiz-adv-x="1109" 
d="M697 711l340 -711h-212l-254 542l-377 -542h-238l519 732l-300 633h215l210 -469l320 469h239z" />
    <glyph glyph-name="Y" unicode="Y" horiz-adv-x="1056" 
d="M648 611l-76 -611h-202l77 625l-354 740h217l252 -543l359 543h232z" />
    <glyph glyph-name="Z" unicode="Z" horiz-adv-x="1129" 
d="M1040 188l-24 -188h-1005l808 1177h-575l23 188h903l-805 -1177h675z" />
    <glyph glyph-name="bracketleft" unicode="[" horiz-adv-x="635" 
d="M62 -363l228 1857h410l-19 -150h-245l-192 -1557h246l-18 -150h-410z" />
    <glyph glyph-name="backslash" unicode="\" horiz-adv-x="867" 
d="M192 1481l149 33l388 -1876l-149 -35z" />
    <glyph glyph-name="bracketright" unicode="]" horiz-adv-x="635" 
d="M598 1494l-228 -1857h-410l18 150h246l191 1557h-245l18 150h410z" />
    <glyph glyph-name="asciicircum" unicode="^" horiz-adv-x="1024" 
d="M273 718h-217l346 653h269l346 -653h-217l-264 490z" />
    <glyph glyph-name="underscore" unicode="_" horiz-adv-x="1024" 
d="M25 -115h1024v-186h-1024v186z" />
    <glyph glyph-name="grave" unicode="`" horiz-adv-x="1024" 
d="M426 1219l143 97l169 -290l-96 -61z" />
    <glyph glyph-name="a" unicode="a" horiz-adv-x="1090" 
d="M999 833l-102 -833h-196l12 90q-71 -62 -128.5 -86.5t-131.5 -24.5q-152 0 -260 104q-114 111 -114 300q0 217 130 349q120 122 300 122q89 0 152.5 -29t128.5 -101l14 109h195zM533 690q-110 0 -186 -89q-72 -84 -72 -209q0 -104 52 -169q65 -81 170 -81q118 0 197 99
q68 85 68 199q0 127 -77 194q-63 55 -152 56z" />
    <glyph glyph-name="b" unicode="b" horiz-adv-x="1110" 
d="M458 1493l-91 -737q79 56 134 76.5t128 20.5q157 0 265 -101q126 -117 126 -311q0 -212 -149 -351q-119 -111 -285 -111q-92 0 -160.5 30.5t-137.5 102.5l-14 -112h-195l184 1493h195zM584 689q-104 0 -178 -72q-87 -86 -87 -227q0 -111 64 -178q67 -69 168 -69
q128 0 208 103q64 82 64 190q0 113 -65.5 182.5t-173.5 70.5z" />
    <glyph glyph-name="c" unicode="c" horiz-adv-x="830" 
d="M797 752l-25 -198q-55 71 -98 99q-67 43 -144 43q-115 0 -187 -87q-67 -80 -67 -206q0 -109 55 -179q69 -88 188 -88q57 0 104.5 20t108.5 70l-25 -206q-116 -47 -216 -47q-86 0 -165.5 32t-133.5 88q-113 117 -113 309q0 197 126 329q123 129 305 129q82 0 148 -25
t139 -83z" />
    <glyph glyph-name="d" unicode="d" horiz-adv-x="1126" 
d="M1102 1493l-183 -1493h-195l11 90q-74 -66 -125.5 -88t-129.5 -22q-154 0 -260 91q-138 118 -138 326q0 145 72 261q67 108 182 159q82 36 175 36q92 0 159.5 -33t140.5 -113l96 786h195zM544 689q-126 0 -203 -102q-62 -82 -62 -199q0 -94 45 -155q67 -89 191 -89
t196 99q70 97 70 210q0 104 -60 165q-69 70 -177 71z" />
    <glyph glyph-name="e" unicode="e" horiz-adv-x="1016" 
d="M279 347q3 -78 45 -131q64 -79 183 -79q138 0 211 102l145 -80q-59 -79 -109 -115q-100 -71 -250 -71q-187 0 -300 105q-124 116 -124 315q0 220 150 357q122 111 294 111q207 0 316 -147q86 -116 86 -298q0 -20 -3 -69h-644zM727 504q-12 72 -36 108q-58 85 -177 85
q-174 0 -224 -193h437z" />
    <glyph glyph-name="f" unicode="f" horiz-adv-x="556" 
d="M368 651l-80 -651h-195l80 651h-127l22 182h127l46 372q19 158 86 223q68 66 174 66q72 0 166 -45l-21 -172q-54 45 -102 45q-53 0 -77.5 -36.5t-36.5 -134.5l-40 -318h178l-22 -182h-178z" />
    <glyph glyph-name="g" unicode="g" horiz-adv-x="1110" 
d="M1018 833l-103 -841q-16 -131 -40 -202t-70 -124q-120 -138 -339 -138q-220 0 -341 127q-48 50 -66.5 107t-19.5 155h189q6 -94 33 -138q25 -40 77 -63t115 -23q121 0 188 69q58 58 75 198l14 116q-68 -53 -126.5 -74.5t-133.5 -21.5q-150 0 -258 96q-133 118 -133 316
q0 232 169 366q121 96 282 96q89 0 150.5 -27t129.5 -97l13 103h195zM544 690q-122 0 -200 -94q-68 -82 -68 -202q0 -115 68 -183q67 -67 172 -67q138 0 215 102q62 81 62 192q0 117 -69 183q-70 68 -180 69z" />
    <glyph glyph-name="h" unicode="h" horiz-adv-x="1000" 
d="M458 1493l-90 -731q118 92 238 92q107 0 182 -53q88 -62 88 -179q0 -50 -10 -128l-61 -494h-195l62 505q5 38 5 74q0 59 -38 85t-93 26q-82 0 -141 -57q-34 -33 -50.5 -75.5t-26.5 -121.5l-54 -436h-195l184 1493h195z" />
    <glyph glyph-name="i" unicode="i" horiz-adv-x="468" 
d="M330 1337q44 0 76.5 -32.5t32.5 -76.5q0 -42 -31 -72.5t-75 -30.5q-43 0 -74.5 32t-31.5 76q0 42 30.5 72.5t72.5 31.5zM377 833l-103 -833h-195l102 833h196z" />
    <glyph glyph-name="j" unicode="j" horiz-adv-x="478" 
d="M326 1338q44 0 76.5 -32.5t32.5 -76.5q0 -43 -31.5 -73.5t-74.5 -30.5q-44 0 -75.5 32t-31.5 76q0 43 30.5 74t73.5 31zM376 833l-161 -1311h-195l161 1311h195z" />
    <glyph glyph-name="k" unicode="k" horiz-adv-x="934" 
d="M458 1493l-121 -983l350 323h261l-437 -380l352 -453h-237l-303 396l-49 -396h-195l184 1493h195z" />
    <glyph glyph-name="l" unicode="l" horiz-adv-x="468" 
d="M458 1493l-184 -1493h-195l184 1493h195z" />
    <glyph glyph-name="m" unicode="m" horiz-adv-x="1438" 
d="M383 833l-9 -78q54 55 106 77.5t123 22.5q79 0 122 -29t76 -105q67 73 127.5 103t138.5 30q121 0 184.5 -58.5t63.5 -169.5q0 -46 -15 -167l-56 -459h-196l60 482q8 66 8 99q0 109 -110 109q-84 0 -132 -55q-41 -47 -56 -169l-58 -466h-195l61 494q7 60 9 93
q2 47 -28.5 75t-84.5 28q-163 0 -190 -226l-58 -464h-195l102 833h202z" />
    <glyph glyph-name="n" unicode="n" horiz-adv-x="997" 
d="M377 833l-10 -77q116 98 235 98q133 0 211 -84q56 -61 56 -170q0 -61 -11 -153l-55 -447h-196l61 490q7 59 7 87q0 113 -123 113q-83 0 -142 -58q-39 -37 -56.5 -85.5t-29.5 -145.5l-50 -401h-195l102 833h196z" />
    <glyph glyph-name="o" unicode="o" horiz-adv-x="1089" 
d="M551 860q173 0 293 -95q155 -123 155 -341q0 -163 -104 -290q-133 -161 -354 -161q-212 0 -342 134q-118 121 -118 303q0 94 36 180t101 145q135 122 333 125zM549 696q-119 0 -197 -83q-75 -79 -75 -201q0 -113 62 -187q74 -88 198 -88q145 0 215 116q50 83 50 181
q0 134 -84 204q-68 57 -169 58z" />
    <glyph glyph-name="p" unicode="p" horiz-adv-x="1109" 
d="M377 833l-11 -88q71 61 130.5 85t136.5 24q150 0 256 -95q131 -118 131 -314q0 -178 -108 -309q-127 -156 -330 -156q-92 0 -156.5 30.5t-136.5 109.5l-73 -598h-195l161 1311h195zM598 690q-107 0 -184 -73q-93 -89 -93 -227q0 -113 72 -181q68 -65 168 -65
q126 0 197 95q66 89 66 198q0 123 -82 201q-54 51 -144 52z" />
    <glyph glyph-name="q" unicode="q" horiz-adv-x="1113" 
d="M1021 833l-161 -1311h-195l68 554q-67 -54 -124 -75t-138 -21q-157 0 -262 98q-131 122 -131 317q0 192 127 327q124 132 314 132q95 0 159 -30.5t133 -109.5l15 119h195zM546 690q-122 0 -202 -95q-69 -83 -69 -198q0 -101 58 -170q69 -83 184 -83q120 0 192 89
q75 94 75 207q0 108 -67 178.5t-171 71.5z" />
    <glyph glyph-name="r" unicode="r" horiz-adv-x="692" 
d="M377 833l-9 -71q56 53 99 73t101 20q51 0 85 -13.5t76 -51.5l-125 -160q-54 46 -108 46q-74 0 -113.5 -60.5t-57.5 -199.5l-51 -416h-195l102 833h196z" />
    <glyph glyph-name="s" unicode="s" horiz-adv-x="731" 
d="M678 741l-110 -111q-78 71 -144 71q-45 0 -75 -25t-30 -63q0 -35 25 -60t103 -69q111 -62 151.5 -115t40.5 -134q0 -119 -82.5 -190.5t-218.5 -71.5q-100 0 -168.5 38t-134.5 128l128 89q79 -94 168 -94q49 0 80 26.5t31 68.5q0 38 -25 61t-128 80q-93 51 -129.5 101.5
t-36.5 127.5q0 117 91 193q82 69 203 69q142 0 261 -120z" />
    <glyph glyph-name="t" unicode="t" horiz-adv-x="531" 
d="M368 651l-80 -651h-196l80 651h-110l22 182h111l47 386h196l-48 -386h180l-22 -182h-180z" />
    <glyph glyph-name="u" unicode="u" horiz-adv-x="991" 
d="M900 833l-59 -485q-14 -114 -36 -171t-68 -101q-102 -97 -281 -97q-187 0 -276 110q-62 76 -62 183q0 40 9 110l55 451h195l-57 -468q-7 -55 -7 -90q0 -63 38 -96q42 -36 117 -36q84 0 123.5 44t52.5 152l61 494h195z" />
    <glyph glyph-name="v" unicode="v" horiz-adv-x="883" 
d="M914 833l-573 -941l-296 941h203l143 -533l300 533h223z" />
    <glyph glyph-name="w" unicode="w" horiz-adv-x="1318" 
d="M1349 833l-536 -922l-168 539l-298 -539l-302 922h206l147 -508l297 531l159 -531l273 508h222z" />
    <glyph glyph-name="x" unicode="x" horiz-adv-x="981" 
d="M605 447l299 -447h-226l-197 317l-269 -317h-253l424 463l-249 370h224l148 -239l198 239h250z" />
    <glyph glyph-name="y" unicode="y" horiz-adv-x="954" 
d="M985 833l-754 -1311h-223l335 581l-298 730h209l206 -532l302 532h223z" />
    <glyph glyph-name="z" unicode="z" horiz-adv-x="939" 
d="M863 182l-23 -182h-856l559 651h-418l22 182h785l-562 -651h493z" />
    <glyph glyph-name="braceleft" unicode="{" horiz-adv-x="647" 
d="M661 1327h-25q-95 0 -123 -54q-14 -27 -24 -106l-44 -355q-12 -102 -44 -153.5t-110 -94.5q101 -65 101 -176q0 -10 -1 -20l-50 -402q-5 -45 -5 -81q0 -45 26 -64.5t87 -19.5q5 0 24 1l-22 -178q-38 -1 -50 -2q-55 -2 -58 -2q-112 0 -161.5 50t-49.5 164q0 45 5 86
l54 436v10q0 46 -26 77.5t-73 42.5l21 170q63 15 94.5 54t40.5 115l49 395q18 151 82.5 219.5t188.5 68.5q12 0 63 -2q17 0 52 -1z" />
    <glyph glyph-name="bar" unicode="|" horiz-adv-x="1024" 
d="M434 1365h205v-1706h-205v1706z" />
    <glyph glyph-name="braceright" unicode="}" horiz-adv-x="647" 
d="M11 -198h24q95 0 123 54q15 27 25 106l43 355q13 102 45 153.5t109 94.5q-100 65 -100 176q0 13 1 20l49 402q6 49 6 81q0 45 -26 64.5t-87 19.5q-5 0 -25 -1l22 178q38 1 50 2q56 2 59 2q112 0 161.5 -50t49.5 -164q0 -40 -6 -86l-53 -436q2 -111 99 -130l-21 -170
q-64 -15 -95 -54t-41 -115l-48 -395q-19 -151 -83.5 -219.5t-187.5 -68.5q-13 0 -64 2q-17 0 -51 1z" />
    <glyph glyph-name="asciitilde" unicode="~" horiz-adv-x="1365" 
d="M212 1246q63 133 119 191q65 68 173 68q84 0 224 -62q128 -56 188 -56q45 0 85 22q10 6 71 81q20 25 36 25q41 0 94 -76q-59 -119 -118 -176q-33 -33 -85 -53.5t-102 -20.5q-79 0 -230 69q-108 50 -180 50q-34 0 -75 -24q-11 -7 -73 -94q-17 -23 -35 -23q-40 0 -92 79z
" />
    <glyph glyph-name="Adieresis" unicode="&#xc4;" horiz-adv-x="1279" 
d="M384 321l-166 -321h-221l756 1463l471 -1463h-211l-99 321h-530zM472 496h385l-146 486zM937 1754q47 0 79.5 -33.5t32.5 -81.5q0 -45 -33 -77.5t-79 -32.5t-79.5 34t-33.5 80q0 47 32.5 79t80.5 32zM606 1753q48 0 78.5 -33t30.5 -84q0 -44 -31.5 -75t-76.5 -31
q-48 0 -81.5 33t-33.5 80q0 49 31.5 79t82.5 31z" />
    <glyph glyph-name="Aring" unicode="&#xc5;" horiz-adv-x="1279" 
d="M384 321l-166 -321h-221l756 1463l471 -1463h-211l-99 321h-530zM472 496h385l-146 486zM763 1880q83 0 140 -56.5t57 -139.5q0 -80 -57.5 -137.5t-137.5 -57.5q-82 0 -139 58t-57 139q0 80 56 136.5t138 57.5zM763 1765q-33 0 -56.5 -23t-23.5 -56q0 -34 24 -58t57 -24
t57 24t24 57q0 34 -23.5 57t-58.5 23z" />
    <glyph glyph-name="Ccedilla" unicode="&#xc7;" horiz-adv-x="1250" 
d="M1257 1243l-27 -221q-177 180 -424 180q-215 0 -349 -154q-135 -155 -135 -398q0 -200 99 -325q129 -162 393 -162q106 0 184.5 27t160.5 92l-30 -239q-193 -70 -351 -70q-280 0 -457 168q-105 99 -155 240q-47 133 -47 278q0 328 207 539q191 194 472 194
q124 0 230 -34.5t229 -114.5zM804 -186l-244 -250l-110 63l181 277z" />
    <glyph glyph-name="Eacute" unicode="&#xc9;" horiz-adv-x="963" 
d="M977 1365l-23 -188h-501l-43 -354h501l-22 -175h-501l-56 -460h501l-24 -188h-703l168 1365h703zM929 1734l-290 -246l-106 65l242 278z" />
    <glyph glyph-name="Ntilde" unicode="&#xd1;" horiz-adv-x="1489" 
d="M1434 1365l-179 -1459l-828 1057l-119 -963h-202l177 1440l829 -1056l120 981h202zM1185 1683q-82 -160 -197 -160q-57 0 -160 56q-52 28 -74 28q-33 0 -92 -85l-102 79q67 90 108 122.5t89 32.5q44 0 128 -49q67 -38 103 -38q58 0 94 90z" />
    <glyph glyph-name="Odieresis" unicode="&#xd6;" horiz-adv-x="1606" 
d="M844 1392q283 0 471 -156q229 -190 229 -527q0 -167 -69 -322q-91 -203 -278 -314q-169 -100 -384 -100q-213 0 -381 101q-170 103 -252 297q-61 143 -61 306q0 194 87 355q63 116 171 202q194 154 467 158zM851 1202q-205 0 -348 -123q-89 -76 -136 -186
q-45 -103 -45 -217q0 -200 121 -345q139 -168 375 -168q267 0 416 209q106 148 106 339q0 251 -159 381q-130 108 -330 110zM1114 1754q47 0 79.5 -33.5t32.5 -81.5q0 -45 -33 -77.5t-79 -32.5t-79.5 34t-33.5 80q0 47 32.5 79t80.5 32zM783 1753q48 0 78.5 -33t30.5 -84
q0 -44 -31.5 -75t-76.5 -31q-48 0 -81.5 33t-33.5 80q0 49 31.5 79t82.5 31z" />
    <glyph glyph-name="Udieresis" unicode="&#xdc;" horiz-adv-x="1348" 
d="M1294 1365l-99 -808q-18 -146 -46.5 -234.5t-79.5 -156.5q-73 -96 -185 -147q-103 -46 -225 -46q-228 0 -371 148q-120 125 -120 300q0 81 12 181l94 763h202l-97 -789q-8 -69 -8 -121q0 -110 49 -182q77 -110 236 -110q185 0 269 154q49 89 71 269l96 779h202zM980 1754
q47 0 79.5 -33.5t32.5 -81.5q0 -45 -33 -77.5t-79 -32.5t-79.5 34t-33.5 80t32.5 78.5t80.5 32.5zM649 1753q48 0 78.5 -33t30.5 -84q0 -44 -31.5 -75t-77.5 -31q-47 0 -80.5 33t-33.5 80q0 48 31.5 78.5t82.5 31.5z" />
    <glyph glyph-name="aacute" unicode="&#xe1;" horiz-adv-x="1090" 
d="M999 833l-102 -833h-196l12 90q-71 -62 -128.5 -86.5t-131.5 -24.5q-152 0 -260 104q-114 111 -114 300q0 217 130 349q120 122 300 122q89 0 152.5 -29t128.5 -101l14 109h195zM533 690q-110 0 -186 -89q-72 -84 -72 -209q0 -104 52 -169q65 -81 170 -81q118 0 197 99
q68 85 68 199q0 127 -77 194q-63 55 -152 56zM894 1223l-283 -258l-100 58l237 293z" />
    <glyph glyph-name="agrave" unicode="&#xe0;" horiz-adv-x="1090" 
d="M999 833l-102 -833h-196l12 90q-71 -62 -128.5 -86.5t-131.5 -24.5q-152 0 -260 104q-114 111 -114 300q0 217 130 349q120 122 300 122q89 0 152.5 -29t128.5 -101l14 109h195zM533 690q-110 0 -186 -89q-72 -84 -72 -209q0 -104 52 -169q65 -81 170 -81q118 0 197 99
q68 85 68 199q0 127 -77 194q-63 55 -152 56zM410 1219l143 97l169 -290l-96 -61z" />
    <glyph glyph-name="acircumflex" unicode="&#xe2;" horiz-adv-x="1090" 
d="M999 833l-102 -833h-196l12 90q-71 -62 -128.5 -86.5t-131.5 -24.5q-152 0 -260 104q-114 111 -114 300q0 217 130 349q120 122 300 122q89 0 152.5 -29t128.5 -101l14 109h195zM533 690q-110 0 -186 -89q-72 -84 -72 -209q0 -104 52 -169q65 -81 170 -81q118 0 197 99
q68 85 68 199q0 127 -77 194q-63 55 -152 56zM631 1134l-193 -169l-82 89l294 262l209 -262l-89 -86z" />
    <glyph glyph-name="adieresis" unicode="&#xe4;" horiz-adv-x="1090" 
d="M999 833l-102 -833h-196l12 90q-71 -62 -128.5 -86.5t-131.5 -24.5q-152 0 -260 104q-114 111 -114 300q0 217 130 349q120 122 300 122q89 0 152.5 -29t128.5 -101l14 109h195zM533 690q-110 0 -186 -89q-72 -84 -72 -209q0 -104 52 -169q65 -81 170 -81q118 0 197 99
q68 85 68 199q0 127 -77 194q-63 55 -152 56zM468 1229q43 0 75 -32.5t32 -76.5q0 -42 -31.5 -72.5t-74.5 -30.5t-74.5 32t-31.5 76q0 43 30.5 73.5t74.5 30.5zM787 1229q43 0 75 -32.5t32 -76.5q0 -42 -31 -72.5t-75 -30.5q-43 0 -74.5 32t-31.5 76q0 43 30.5 73.5
t74.5 30.5z" />
    <glyph glyph-name="atilde" unicode="&#xe3;" horiz-adv-x="1090" 
d="M999 833l-102 -833h-196l12 90q-71 -62 -128.5 -86.5t-131.5 -24.5q-152 0 -260 104q-114 111 -114 300q0 217 130 349q120 122 300 122q89 0 152.5 -29t128.5 -101l14 109h195zM533 690q-110 0 -186 -89q-72 -84 -72 -209q0 -104 52 -169q65 -81 170 -81q118 0 197 99
q68 85 68 199q0 127 -77 194q-63 55 -152 56zM930 1183q-82 -161 -191 -161q-53 0 -185 80q-11 7 -29 7q-32 0 -55 -40q-18 -30 -29 -46l-101 70q96 156 186 156q38 0 124 -49q68 -38 90 -38q45 0 87 90z" />
    <glyph glyph-name="aring" unicode="&#xe5;" horiz-adv-x="1090" 
d="M999 833l-102 -833h-196l12 90q-71 -62 -128.5 -86.5t-131.5 -24.5q-152 0 -260 104q-114 111 -114 300q0 217 130 349q120 122 300 122q89 0 152.5 -29t128.5 -101l14 109h195zM533 690q-110 0 -186 -89q-72 -84 -72 -209q0 -104 52 -169q65 -81 170 -81q118 0 197 99
q68 85 68 199q0 127 -77 194q-63 55 -152 56zM630 1333q83 0 140 -56.5t57 -139.5q0 -80 -57.5 -137.5t-137.5 -57.5q-82 0 -139 58t-57 139q0 80 56 136.5t138 57.5zM631 1221q-35 0 -59 -24t-24 -58q0 -35 24.5 -60t59.5 -25q34 0 58.5 24.5t24.5 58.5q0 36 -24 59.5
t-60 24.5z" />
    <glyph glyph-name="ccedilla" unicode="&#xe7;" horiz-adv-x="830" 
d="M797 752l-25 -198q-55 71 -98 99q-67 43 -144 43q-115 0 -187 -87q-67 -80 -67 -206q0 -109 55 -179q69 -88 188 -88q57 0 104.5 20t108.5 70l-25 -206q-118 -47 -216 -47q-86 0 -165.5 32t-133.5 88q-113 117 -113 309q0 197 126 329q123 129 305 129q82 0 148 -25
t139 -83zM542 -182l-236 -243l-105 59l177 270z" />
    <glyph glyph-name="eacute" unicode="&#xe9;" horiz-adv-x="1016" 
d="M279 347q3 -78 45 -131q64 -79 183 -79q138 0 211 102l145 -80q-59 -79 -109 -115q-100 -71 -250 -71q-187 0 -300 105q-124 116 -124 315q0 220 150 357q122 111 294 111q207 0 316 -147q86 -116 86 -298q0 -20 -3 -69h-644zM727 504q-12 72 -36 108q-58 85 -177 85
q-174 0 -224 -193h437zM844 1223l-283 -258l-100 58l237 293z" />
    <glyph glyph-name="egrave" unicode="&#xe8;" horiz-adv-x="1016" 
d="M279 347q3 -78 45 -131q64 -79 183 -79q138 0 211 102l145 -80q-59 -79 -109 -115q-100 -71 -250 -71q-187 0 -300 105q-124 116 -124 315q0 220 150 357q122 111 294 111q207 0 316 -147q86 -116 86 -298q0 -20 -3 -69h-644zM727 504q-12 72 -36 108q-58 85 -177 85
q-174 0 -224 -193h437zM367 1219l143 97l169 -290l-96 -61z" />
    <glyph glyph-name="ecircumflex" unicode="&#xea;" horiz-adv-x="1016" 
d="M279 347q3 -78 45 -131q64 -79 183 -79q138 0 211 102l145 -80q-59 -79 -109 -115q-100 -71 -250 -71q-187 0 -300 105q-124 116 -124 315q0 220 150 357q122 111 294 111q207 0 316 -147q86 -116 86 -298q0 -20 -3 -69h-644zM727 504q-12 72 -36 108q-58 85 -177 85
q-174 0 -224 -193h437zM595 1134l-193 -169l-82 89l294 262l209 -262l-89 -86z" />
    <glyph glyph-name="edieresis" unicode="&#xeb;" horiz-adv-x="1016" 
d="M279 347q3 -78 45 -131q64 -79 183 -79q138 0 211 102l145 -80q-59 -79 -109 -115q-100 -71 -250 -71q-187 0 -300 105q-124 116 -124 315q0 220 150 357q122 111 294 111q207 0 316 -147q86 -116 86 -298q0 -20 -3 -69h-644zM727 504q-12 72 -36 108q-58 85 -177 85
q-174 0 -224 -193h437zM425 1229q43 0 75 -32.5t32 -76.5q0 -42 -31.5 -72.5t-74.5 -30.5t-74.5 32t-31.5 76q0 43 30.5 73.5t74.5 30.5zM744 1229q43 0 75 -32.5t32 -76.5q0 -42 -31 -72.5t-75 -30.5q-43 0 -74.5 32t-31.5 76q0 43 30.5 73.5t74.5 30.5z" />
    <glyph glyph-name="iacute" unicode="&#xed;" horiz-adv-x="468" 
d="M377 833l-103 -833h-195l102 833h196zM560 1223l-263 -258l-100 58l217 293z" />
    <glyph glyph-name="igrave" unicode="&#xec;" horiz-adv-x="468" 
d="M377 833l-103 -833h-195l102 833h196zM95 1219l143 97l169 -290l-96 -61z" />
    <glyph glyph-name="icircumflex" unicode="&#xee;" horiz-adv-x="468" 
d="M377 833l-102 -833h-195l102 833h195zM323 1134l-180 -169l-82 89l280 262l195 -262l-89 -86z" />
    <glyph glyph-name="idieresis" unicode="&#xef;" horiz-adv-x="468" 
d="M377 833l-102 -833h-195l102 833h195zM170 1229q43 0 75 -32.5t32 -76.5q0 -42 -31.5 -72.5t-74.5 -30.5t-74.5 32t-31.5 76q0 43 30.5 73t74.5 31zM450 1229q43 0 75 -32.5t32 -76.5q0 -42 -31.5 -72.5t-74.5 -30.5t-74.5 32t-31.5 76q0 43 30.5 73.5t74.5 30.5z" />
    <glyph glyph-name="ntilde" unicode="&#xf1;" horiz-adv-x="997" 
d="M377 833l-10 -77q116 98 235 98q133 0 211 -84q56 -61 56 -170q0 -61 -11 -153l-55 -447h-196l61 490q7 59 7 87q0 113 -123 113q-83 0 -142 -58q-39 -37 -56.5 -85.5t-29.5 -145.5l-50 -401h-195l102 833h196zM854 1183q-82 -161 -191 -161q-53 0 -185 80q-11 7 -29 7
q-32 0 -55 -40q-18 -30 -29 -46l-101 70q96 156 186 156q38 0 124 -49q68 -38 90 -38q45 0 87 90z" />
    <glyph glyph-name="oacute" unicode="&#xf3;" horiz-adv-x="1089" 
d="M551 860q173 0 293 -95q155 -123 155 -341q0 -163 -104 -290q-133 -161 -354 -161q-212 0 -342 134q-118 121 -118 303q0 94 36 180t101 145q135 122 333 125zM549 696q-119 0 -197 -83q-75 -79 -75 -201q0 -113 62 -187q74 -88 198 -88q145 0 215 116q50 83 50 181
q0 134 -84 204q-68 57 -169 58zM874 1223l-283 -258l-100 58l237 293z" />
    <glyph glyph-name="ograve" unicode="&#xf2;" horiz-adv-x="1089" 
d="M551 860q173 0 293 -95q155 -123 155 -341q0 -163 -104 -290q-133 -161 -354 -161q-212 0 -342 134q-118 121 -118 303q0 94 36 180t101 145q135 122 333 125zM549 696q-119 0 -197 -83q-75 -79 -75 -201q0 -113 62 -187q74 -88 198 -88q145 0 215 116q50 83 50 181
q0 134 -84 204q-68 57 -169 58zM397 1219l143 97l169 -290l-96 -61z" />
    <glyph glyph-name="ocircumflex" unicode="&#xf4;" horiz-adv-x="1089" 
d="M551 860q173 0 293 -95q155 -123 155 -341q0 -163 -104 -290q-133 -161 -354 -161q-212 0 -342 134q-118 121 -118 303q0 94 36 180t101 145q135 122 333 125zM549 696q-119 0 -197 -83q-75 -79 -75 -201q0 -113 62 -187q74 -88 198 -88q145 0 215 116q50 83 50 181
q0 134 -84 204q-68 57 -169 58zM631 1134l-193 -169l-82 89l294 262l209 -262l-89 -86z" />
    <glyph glyph-name="odieresis" unicode="&#xf6;" horiz-adv-x="1089" 
d="M551 860q173 0 293 -95q155 -123 155 -341q0 -163 -104 -290q-133 -161 -354 -161q-212 0 -342 134q-118 121 -118 303q0 94 36 180t101 145q135 122 333 125zM549 696q-119 0 -197 -83q-75 -79 -75 -201q0 -113 62 -187q74 -88 198 -88q145 0 215 116q50 83 50 181
q0 134 -84 204q-68 57 -169 58zM454 1229q43 0 75 -32.5t32 -76.5q0 -42 -31.5 -72.5t-74.5 -30.5t-74.5 32t-31.5 76q0 43 30.5 73.5t74.5 30.5zM773 1229q43 0 75 -32.5t32 -76.5q0 -42 -31 -72.5t-75 -30.5q-43 0 -74.5 32t-31.5 76q0 43 30.5 73.5t74.5 30.5z" />
    <glyph glyph-name="otilde" unicode="&#xf5;" horiz-adv-x="1089" 
d="M551 860q173 0 293 -95q155 -123 155 -341q0 -163 -104 -290q-133 -161 -354 -161q-212 0 -342 134q-118 121 -118 303q0 94 36 180t101 145q135 122 333 125zM549 696q-119 0 -197 -83q-75 -79 -75 -201q0 -113 62 -187q74 -88 198 -88q145 0 215 116q50 83 50 181
q0 134 -84 204q-68 57 -169 58zM916 1183q-82 -161 -191 -161q-53 0 -185 80q-11 7 -29 7q-32 0 -55 -40q-18 -30 -29 -46l-101 70q96 156 186 156q38 0 124 -49q68 -38 90 -38q45 0 87 90z" />
    <glyph glyph-name="uacute" unicode="&#xfa;" horiz-adv-x="991" 
d="M900 833l-59 -485q-14 -114 -36 -171t-68 -101q-102 -97 -281 -97q-187 0 -276 110q-62 76 -62 183q0 40 9 110l55 451h195l-57 -468q-7 -55 -7 -90q0 -63 38 -96q42 -36 117 -36q84 0 123.5 44t52.5 152l61 494h195zM837 1223l-283 -258l-100 58l237 293z" />
    <glyph glyph-name="ugrave" unicode="&#xf9;" horiz-adv-x="991" 
d="M900 833l-59 -485q-14 -114 -36 -171t-68 -101q-102 -97 -281 -97q-187 0 -276 110q-62 76 -62 183q0 40 9 110l55 451h195l-57 -468q-7 -55 -7 -90q0 -63 38 -96q42 -36 117 -36q84 0 123.5 44t52.5 152l61 494h195zM353 1219l143 97l169 -290l-96 -61z" />
    <glyph glyph-name="ucircumflex" unicode="&#xfb;" horiz-adv-x="991" 
d="M900 833l-59 -485q-14 -114 -36 -171t-68 -101q-102 -97 -281 -97q-187 0 -276 110q-62 76 -62 183q0 40 9 110l55 451h195l-57 -468q-7 -55 -7 -90q0 -63 38 -96q42 -36 117 -36q84 0 123.5 44t52.5 152l61 494h195zM584 1134l-193 -169l-82 89l294 262l209 -262
l-89 -86z" />
    <glyph glyph-name="udieresis" unicode="&#xfc;" horiz-adv-x="991" 
d="M900 833l-59 -485q-14 -114 -36 -171t-68 -101q-102 -97 -281 -97q-187 0 -276 110q-62 76 -62 183q0 40 9 110l55 451h195l-57 -468q-7 -55 -7 -90q0 -63 38 -96q42 -36 117 -36q84 0 123.5 44t52.5 152l61 494h195zM417 1229q43 0 75 -32.5t32 -76.5q0 -42 -31.5 -72.5
t-74.5 -30.5t-74.5 32t-31.5 76q0 43 30.5 73.5t74.5 30.5zM736 1229q43 0 75 -32.5t32 -76.5q0 -42 -31 -72.5t-75 -30.5q-43 0 -74.5 32t-31.5 76q0 43 30.5 73.5t74.5 30.5z" />
    <glyph glyph-name="dagger" unicode="&#x2020;" horiz-adv-x="1161" 
d="M799 1494l-45 -364h325l-21 -168h-324l-163 -1325h-177l163 1325h-333l21 168h332l45 364h177z" />
    <glyph glyph-name="degree" unicode="&#xb0;" horiz-adv-x="1161" 
d="M664 1385q108 0 189 -80q80 -78 80 -192t-80 -193q-80 -80 -193 -80t-193 80q-80 79 -80 192q0 116 80 193q83 80 197 80zM662 1249q-61 0 -103 -40t-42 -98q0 -61 42.5 -104.5t100.5 -43.5q59 0 101 43.5t42 104.5q0 58 -40.5 97.5t-100.5 40.5z" />
    <glyph glyph-name="cent" unicode="&#xa2;" horiz-adv-x="1161" 
d="M663 253l-28 -233h-150l30 249q-109 35 -173 103q-111 118 -111 310q0 144 71 261q53 87 138 139t182 57l25 206h150l-27 -220q84 -23 172 -93l-25 -198q-54 76 -98 106q-67 46 -145 46q-115 0 -191 -91q-69 -84 -69 -212q0 -115 57 -186q33 -42 84 -66.5t105 -24.5
q109 0 217 99l-25 -206q-106 -42 -189 -46z" />
    <glyph glyph-name="sterling" unicode="&#xa3;" horiz-adv-x="1161" 
d="M995 260l91 -156q-76 -67 -145 -96t-153 -29q-77 0 -193 40q-126 44 -165.5 54.5t-77.5 10.5q-60 0 -105 -26.5t-100 -92.5l-107 139q105 133 232 156q45 106 45 196q0 22 -4 69h-197l17 142h160q-21 182 -21 246q0 200 121 334q126 139 326 139q237 0 339 -188
q49 -90 65 -250l-180 -57q-20 316 -228 316q-112 0 -179.5 -82t-67.5 -219q0 -96 26 -232h329l-17 -142h-302q2 -32 2 -49q0 -88 -45 -223q53 -13 159 -61q94 -41 166 -41q108 0 209 102z" />
    <glyph glyph-name="section" unicode="&#xa7;" horiz-adv-x="1161" 
d="M1073 1077h-182v44q0 96 -54 150q-62 62 -158 62q-73 0 -129 -43q-74 -58 -74 -150q0 -66 42.5 -111.5t140.5 -84.5q157 -63 220 -116q118 -101 118 -269q0 -221 -234 -325q69 -64 93 -94q56 -73 56 -182q0 -115 -66 -200q-50 -63 -127 -97q-94 -42 -201 -42
q-154 0 -258 74q-128 90 -134 279q-1 16 -1 69h183q-1 -29 -1 -42q0 -103 53 -160t149 -57q93 0 149.5 51t56.5 134q0 74 -52 122q-31 29 -57.5 43t-157.5 70q-248 108 -248 338q0 233 226 335q-76 61 -107.5 121.5t-31.5 146.5q0 181 134 286q105 82 258 82q132 0 232 -68
q159 -108 162 -366zM593 745q-78 0 -132 -46q-67 -56 -67 -143q0 -75 47 -127q58 -62 154 -62q92 0 148 55q56 53 56 133q0 83 -58 136t-148 54z" />
    <glyph glyph-name="bullet" unicode="&#x2022;" horiz-adv-x="1365" 
d="M714 978q113 0 196 -83q84 -83 84 -201t-83 -201t-201 -83q-116 0 -199 82q-85 84 -85 202q0 120 84 202q85 82 204 82z" />
    <glyph glyph-name="paragraph" unicode="&#xb6;" horiz-adv-x="1161" 
d="M498 -195h-189l109 880q-16 -1 -22 -1q-151 0 -219 129q-41 78 -41 181q0 91 33 168t92 123q102 80 304 80h633l-137 -191h-54l-168 -1369h-188l168 1369h-152z" />
    <glyph glyph-name="germandbls" unicode="&#xdf;" horiz-adv-x="1063" 
d="M93 0l80 651h-93l22 182h94l35 290q24 196 92 276q99 118 286 118q166 0 265 -90q106 -96 106 -257q0 -117 -51.5 -199t-160.5 -140q79 -40 120 -92q78 -97 78 -251q0 -157 -76 -287q-124 -210 -385 -210q-47 0 -119 9l21 169q51 -15 91 -15q107 0 174 66q45 44 71 118
t26 159q0 251 -291 251l20 168q121 0 173 29q54 31 88 97t34 140q0 80 -47 125.5t-129 45.5q-115 0 -161 -102q-19 -43 -33 -160l-135 -1091h-195z" />
    <glyph glyph-name="registered" unicode="&#xae;" horiz-adv-x="1502" 
d="M770 1393q197 0 362 -94q162 -93 258 -262q95 -166 95 -353q0 -193 -95 -358t-260 -260q-163 -94 -352 -94t-354 95q-164 95 -259 260q-96 165 -96 358q0 201 107 373q105 169 284 259q152 77 310 76zM780 1290h-7q-159 0 -301 -87q-145 -88 -223 -242q-66 -131 -66 -276
q0 -168 83 -311q81 -140 219 -220q137 -79 292 -79q156 0 291 78q139 80 220 220q82 143 82 311q0 162 -82 306q-81 142 -218 222q-135 78 -290 78zM843 613l219 -340h-167l-204 326h-25l-40 -326h-152l101 819h179q139 0 204 -51q87 -67 87 -188q0 -88 -50.5 -151
t-138.5 -86zM710 955l-28 -226h45q87 0 121 27q43 35 43 94q0 55 -34 80t-108 25h-39z" />
    <glyph glyph-name="copyright" unicode="&#xa9;" horiz-adv-x="1502" 
d="M770 1393q197 0 362 -94q162 -93 258 -262q95 -166 95 -353q0 -193 -95 -358t-260 -260q-163 -94 -352 -94t-354 95q-164 95 -259 260q-96 165 -96 358q0 201 107 373q105 169 284 259q152 77 310 76zM780 1290h-7q-159 0 -301 -87q-145 -88 -223 -242q-66 -131 -66 -276
q0 -168 83 -311q81 -140 219 -220q137 -79 292 -79q156 0 291 78q139 80 220 220q82 143 82 311q0 162 -82 306q-81 142 -218 222q-135 78 -290 78zM1095 1016l-20 -166q-14 13 -21 19q-106 102 -254 102q-127 0 -204 -84q-78 -85 -78 -218q0 -116 60 -184q80 -91 235 -91
q72 0 115 16t113 70l-22 -178q-130 -45 -231 -45q-179 0 -292 101q-132 116 -132 313q0 194 131 320q121 117 301 117q149 0 299 -92z" />
    <glyph glyph-name="trademark" unicode="&#x2122;" horiz-adv-x="1556" 
d="M433 1234l-79 -647h-149l80 647h-196l16 131h532l-16 -131h-188zM1449 1465l82 -878h-144l-39 449l-306 -521l-177 521l-148 -449h-153l294 859l217 -623z" />
    <glyph glyph-name="acute" unicode="&#xb4;" horiz-adv-x="1024" 
d="M888 1223l-283 -258l-100 58l237 293z" />
    <glyph glyph-name="dieresis" unicode="&#xa8;" horiz-adv-x="1024" 
d="M428 1229q43 0 75 -32.5t32 -76.5q0 -42 -31.5 -72.5t-74.5 -30.5t-74.5 32t-31.5 76q0 43 30.5 73.5t74.5 30.5zM747 1229q43 0 75 -32.5t32 -76.5q0 -42 -31 -72.5t-75 -30.5q-43 0 -74.5 32t-31.5 76q0 43 30.5 73.5t74.5 30.5z" />
    <glyph glyph-name="glyph143" 
 />
    <glyph glyph-name="AE" unicode="&#xc6;" horiz-adv-x="1920" 
d="M1407 1365l55 -188h-566l119 -358h568l56 -175h-568l151 -456h572l56 -188h-776l-106 336h-566l-196 -336h-222l795 1365h628zM505 511h407l-145 461z" />
    <glyph glyph-name="Oslash" unicode="&#xd8;" horiz-adv-x="1606" 
d="M325 150l-166 -147l-90 106l166 149q-39 75 -58 120q-58 138 -58 297q0 310 208 515q204 202 520 202q140 0 248.5 -36.5t229.5 -123.5l169 148l99 -109l-172 -153q123 -159 123 -405q0 -273 -158 -474q-99 -127 -245 -196q-148 -70 -328 -70q-143 0 -252.5 40
t-235.5 137zM483 289q61 -55 116 -80q100 -46 221 -46q265 0 414 209q106 148 106 340q0 163 -71 271zM393 399l778 695q-51 49 -105 69q-101 39 -218 39q-202 0 -345 -123q-89 -77 -136 -186q-45 -103 -45 -219q0 -123 71 -275z" />
    <glyph glyph-name="glyph146" 
 />
    <glyph glyph-name="plusminus" unicode="&#xb1;" horiz-adv-x="1161" 
d="M134 615v164h391v376h166v-376h391v-164h-391v-385h-166v385h-391zM134 0v164h948v-164h-948z" />
    <glyph glyph-name="glyph148" 
 />
    <glyph glyph-name="glyph149" 
 />
    <glyph glyph-name="yen" unicode="&#xa5;" horiz-adv-x="1161" 
d="M156 772l17 137h215l-200 456h217l225 -542l331 542h233l-290 -456h192l-17 -137h-262l-96 -151h340l-17 -138h-345l-59 -483h-203l60 483h-376l17 139h377l-65 150h-294z" />
    <glyph glyph-name="mu" unicode="&#xb5;" horiz-adv-x="991" 
d="M215 -478h-195l161 1311h195l-57 -468q-8 -64 -8 -90q0 -63 39 -96q41 -36 116 -36q85 0 124.5 44t52.5 152l61 494h195l-59 -485q-14 -113 -36 -170.5t-67 -101.5q-103 -97 -274 -97q-113 0 -208 56z" />
    <glyph glyph-name="glyph152" 
 />
    <glyph glyph-name="glyph153" 
 />
    <glyph glyph-name="glyph154" 
 />
    <glyph glyph-name="glyph155" 
 />
    <glyph glyph-name="glyph156" 
 />
    <glyph glyph-name="ordfeminine" unicode="&#xaa;" horiz-adv-x="696" 
d="M116 742h549l-14 -119h-550zM737 1365l-62 -510h-148v33q-77 -45 -143 -45q-107 0 -175.5 70.5t-68.5 178.5q0 130 84 210q78 75 195 75q97 0 164 -59l6 47h148zM433 1255q-62 0 -103 -44.5t-41 -110.5q0 -57 30 -92q37 -43 97 -43q61 0 104 46t43 112q0 58 -36 94.5
t-94 37.5z" />
    <glyph glyph-name="ordmasculine" unicode="&#xba;" horiz-adv-x="696" 
d="M434 1377q111 0 189 -57q102 -76 102 -207q0 -102 -67 -179q-86 -99 -229 -99q-137 0 -222 81q-78 74 -78 186q0 122 89 199q87 75 216 76zM430 1255q-67 0 -109.5 -41.5t-42.5 -106.5q0 -66 42 -108t108 -42t106.5 43.5t40.5 114.5q0 63 -39.5 101t-105.5 39zM116 742
h549l-14 -119h-550z" />
    <glyph glyph-name="glyph159" 
 />
    <glyph glyph-name="ae" unicode="&#xe6;" horiz-adv-x="1590" 
d="M833 358q1 -82 46 -137q69 -85 201 -85q131 0 219 109l133 -94q-131 -179 -368 -179q-217 0 -325 159q-61 -73 -114 -105q-88 -53 -207 -53q-132 0 -235 66q-130 84 -130 226q0 136 117 216q88 59 215 59q143 0 263 -92q11 85 11 124q0 59 -46.5 91.5t-131.5 32.5
q-91 0 -222 -45l21 172q140 37 230 37q200 0 295 -131q116 131 291 131q182 0 296 -124q110 -119 110 -308q0 -22 -3 -70h-666zM425 376q-80 0 -127.5 -31t-47.5 -83q0 -54 51.5 -89.5t129.5 -35.5q85 0 139.5 33t54.5 86q0 54 -55 87t-145 33zM848 501h459q-6 72 -40 115
q-61 80 -179 80q-97 0 -154 -46.5t-86 -148.5z" />
    <glyph glyph-name="oslash" unicode="&#xf8;" horiz-adv-x="1089" 
d="M233 76l-148 -128l-84 99l146 125q-66 117 -66 238q0 197 137 325q134 125 334 125q155 0 288 -90l146 127l87 -100l-141 -118q44 -101 55 -142.5t11 -108.5q0 -167 -104 -293q-133 -162 -352 -162q-175 0 -309 103zM369 195q78 -58 167 -58q145 0 216 116q49 81 49 187
q0 57 -23 104zM297 302l402 347q-56 47 -151 47q-118 0 -194 -80.5t-76 -206.5q0 -54 19 -107z" />
    <glyph glyph-name="questiondown" unicode="&#xbf;" horiz-adv-x="879" 
d="M493 1071q52 0 87 -34t35 -84q0 -51 -34 -85.5t-85 -34.5q-50 0 -84.5 35.5t-34.5 86.5q0 48 33.5 81.5t82.5 34.5zM290 435h-184q13 128 64 192q87 109 240 109q135 0 222 -82q88 -84 88 -206q0 -114 -75 -202q-64 -76 -219 -137q-112 -44 -149 -75t-37 -83
q0 -55 38.5 -92.5t94.5 -37.5q40 0 74 21t52 56q22 44 23 129h175q-2 -160 -63 -241q-90 -121 -266 -121q-150 0 -237 84q-80 77 -80 204q0 105 64 180q52 61 182 110q134 52 183 98q49 48 49 114q0 54 -34 87t-89 33q-107 0 -116 -140z" />
    <glyph glyph-name="exclamdown" unicode="&#xa1;" horiz-adv-x="564" 
d="M339 1070q52 0 87 -35.5t35 -87.5q0 -50 -34 -83t-85 -33q-52 0 -86 34.5t-34 87.5q0 49 33.5 82.5t83.5 34.5zM92 -314l124 1007h193l-124 -1007h-193z" />
    <glyph glyph-name="logicalnot" unicode="&#xac;" horiz-adv-x="1024" 
d="M775 0v355h-682v191h887v-546h-205z" />
    <glyph glyph-name="glyph165" 
 />
    <glyph glyph-name="florin" unicode="&#x192;" horiz-adv-x="1161" 
d="M710 934h225l-19 -139h-230l-103 -575q-31 -169 -59 -245.5t-79 -127.5q-51 -52 -135 -82.5t-173 -30.5q-17 0 -54 3l29 167q89 4 126 15.5t68 45.5q52 53 92 249l102 581h-167l18 139h175l40 230q25 149 89 235q86 116 263 116q51 0 116 -16l-32 -166q-44 14 -82 14
q-73 0 -110.5 -45t-59.5 -160z" />
    <glyph glyph-name="glyph167" 
 />
    <glyph glyph-name="glyph168" 
 />
    <glyph glyph-name="guillemotleft" unicode="&#xab;" horiz-adv-x="823" 
d="M297 54l-233 376l322 396l93 -80l-265 -321l186 -307zM593 54l-233 374l324 398l92 -80l-266 -321l189 -304z" />
    <glyph glyph-name="guillemotright" unicode="&#xbb;" horiz-adv-x="823" 
d="M518 806l233 -376l-322 -395l-94 80l265 321l-186 307zM222 807l233 -375l-324 -398l-92 81l266 321l-189 303z" />
    <glyph glyph-name="ellipsis" unicode="&#x2026;" horiz-adv-x="1514" 
d="M199 218q49 2 86 -34q39 -37 39 -88q0 -37 -24 -68q-38 -48 -96 -48q-49 0 -83.5 35.5t-34.5 87.5q0 42 24 72q32 40 89 43zM708 218q49 2 86 -34q39 -37 39 -88q0 -37 -24 -68q-38 -48 -96 -48q-49 0 -83.5 35.5t-34.5 87.5q0 42 24 72q32 40 89 43zM1218 218
q49 2 86 -34q39 -37 39 -88q0 -36 -24 -68q-38 -48 -96 -48q-49 0 -83.5 36t-34.5 87q0 42 24 72q32 40 89 43z" />
    <glyph glyph-name="glyph172" horiz-adv-x="1161" 
 />
    <glyph glyph-name="Agrave" unicode="&#xc0;" horiz-adv-x="1279" 
d="M384 321l-166 -321h-221l756 1463l471 -1463h-211l-99 321h-530zM472 496h385l-146 486zM529 1748l154 97l174 -278l-107 -65z" />
    <glyph glyph-name="Atilde" unicode="&#xc3;" horiz-adv-x="1279" 
d="M384 321l-166 -321h-221l756 1463l471 -1463h-211l-99 321h-530zM472 496h385l-146 486zM1087 1683q-82 -160 -197 -160q-57 0 -160 56q-52 28 -74 28q-33 0 -92 -85l-102 79q67 90 108 122.5t89 32.5q44 0 128 -49q67 -38 103 -38q58 0 94 90z" />
    <glyph glyph-name="Otilde" unicode="&#xd5;" horiz-adv-x="1606" 
d="M844 1392q283 0 471 -156q229 -190 229 -527q0 -167 -69 -322q-91 -203 -278 -314q-169 -100 -384 -100q-213 0 -381 101q-170 103 -252 297q-61 143 -61 306q0 194 87 355q63 116 171 202q194 154 467 158zM851 1202q-205 0 -348 -123q-89 -76 -136 -186
q-45 -103 -45 -217q0 -200 121 -345q139 -168 375 -168q267 0 416 209q106 148 106 339q0 251 -159 381q-130 108 -330 110zM1259 1683q-82 -160 -197 -160q-57 0 -160 56q-52 28 -74 28q-33 0 -92 -85l-102 79q67 90 108 122.5t89 32.5q44 0 128 -49q67 -38 103 -38
q58 0 94 90z" />
    <glyph glyph-name="OE" unicode="&#x152;" horiz-adv-x="2151" 
d="M2158 1365l-23 -188h-524l-44 -358h532l-21 -175h-533l-56 -456h533l-24 -188h-734l23 184q-78 -78 -140 -117q-150 -94 -345 -94q-245 0 -427 141q-258 198 -258 545q0 227 116 408q115 179 307 263q140 62 311 62q175 0 305 -67.5t244 -217.5l32 258h726zM840 1203
q-230 0 -381 -171q-138 -156 -138 -375q0 -212 133 -347q145 -148 369 -148q150 0 276 74q151 90 214 260q36 97 36 200q0 228 -135 361q-145 144 -374 146z" />
    <glyph glyph-name="oe" unicode="&#x153;" horiz-adv-x="1774" 
d="M1019 352q8 -87 48 -137q27 -35 80 -56.5t111 -21.5q148 0 219 119l146 -91q-58 -81 -117 -121q-104 -71 -245 -71q-115 0 -201 40t-154 126q-50 -60 -89 -89q-105 -77 -267 -77q-176 0 -300 94q-169 127 -169 348q0 197 143 327q131 118 332 118q119 0 204.5 -39
t163.5 -128q136 167 348 167q179 0 292 -107q119 -113 119 -329q0 -33 -1 -72h-663zM555 696q-126 0 -205 -89q-72 -81 -72 -200q0 -121 81 -198q75 -72 188 -72q135 0 213 97q63 78 63 187q0 135 -80 207q-74 67 -188 68zM1022 495h459q-5 83 -36 126q-55 75 -175 75
q-201 0 -248 -201z" />
    <glyph glyph-name="endash" unicode="&#x2013;" horiz-adv-x="1161" 
d="M1050 508l-19 -155h-930l19 155h930z" />
    <glyph glyph-name="emdash" unicode="&#x2014;" horiz-adv-x="1149" 
d="M1154 508l-19 -155h-1149l19 155h1149z" />
    <glyph glyph-name="quotedblleft" unicode="&#x201c;" horiz-adv-x="895" 
d="M503 924l280 468l109 -59l-252 -485zM165 924l280 468l109 -59l-253 -485z" />
    <glyph glyph-name="quotedblright" unicode="&#x201d;" horiz-adv-x="895" 
d="M552 1317l-280 -469l-109 60l252 484zM890 1317l-280 -469l-109 60l252 484z" />
    <glyph glyph-name="quoteleft" unicode="&#x2018;" horiz-adv-x="557" 
d="M165 924l280 468l109 -59l-253 -485z" />
    <glyph glyph-name="quoteright" unicode="&#x2019;" horiz-adv-x="557" 
d="M552 1317l-280 -469l-109 60l252 484z" />
    <glyph glyph-name="divide" unicode="&#xf7;" horiz-adv-x="1161" 
d="M134 615v164h948v-164h-948zM601 504q49 2 86 -34q39 -37 39 -88q0 -37 -24 -68q-38 -48 -96 -48q-49 0 -83.5 35.5t-34.5 86.5q0 43 24 73q32 40 89 43zM605 1126q49 2 86 -34q39 -37 39 -88q0 -37 -24 -68q-38 -48 -96 -48q-49 0 -83.5 36t-34.5 86q0 43 24 73
q32 40 89 43z" />
    <glyph glyph-name="glyph185" 
 />
    <glyph glyph-name="ydieresis" unicode="&#xff;" horiz-adv-x="954" 
d="M985 833l-754 -1311h-223l335 581l-298 730h209l206 -532l302 532h223zM384 1229q43 0 75 -32.5t32 -76.5q0 -42 -31.5 -72.5t-74.5 -30.5t-74.5 32t-31.5 76q0 43 30.5 73.5t74.5 30.5zM703 1229q43 0 75 -32.5t32 -76.5q0 -42 -31 -72.5t-75 -30.5q-43 0 -74.5 32
t-31.5 76q0 43 30.5 73.5t74.5 30.5z" />
    <glyph glyph-name="Ydieresis" unicode="&#x178;" horiz-adv-x="1056" 
d="M648 611l-76 -611h-202l77 625l-354 740h217l252 -543l359 543h232zM817 1754q47 0 79.5 -33.5t32.5 -81.5q0 -45 -33 -77.5t-79 -32.5t-79.5 34t-33.5 80q0 47 32.5 79t80.5 32zM486 1753q48 0 78.5 -33t30.5 -84q0 -44 -31.5 -75t-76.5 -31q-48 0 -81.5 33t-33.5 80
q0 49 31.5 79t82.5 31z" />
    <glyph glyph-name="fraction" unicode="&#x2215;" horiz-adv-x="346" 
d="M728 1348l-973 -1389l-83 58l973 1389z" />
    <glyph glyph-name="currency" unicode="&#xa4;" horiz-adv-x="1365" 
d="M114 266l202 201q-98 133 -98 288q0 147 97 284l-204 204l113 113l203 -203q144 98 292 98t287 -96l202 200l112 -113l-200 -200q98 -145 98 -288q0 -145 -96 -285l203 -203l-112 -113l-202 203q-137 -99 -291 -99q-143 0 -292 97l-202 -201zM718 1068q-137 0 -231 -104
q-81 -89 -81 -210q0 -140 104 -233q89 -81 208 -81q138 0 232 103q81 88 81 206q0 135 -89 224q-92 93 -224 95z" />
    <glyph glyph-name="guilsinglleft" unicode="&#x2039;" horiz-adv-x="527" 
d="M297 54l-233 376l322 396l93 -80l-265 -321l186 -307z" />
    <glyph glyph-name="guilsinglright" unicode="&#x203a;" horiz-adv-x="527" 
d="M222 806l232 -376l-321 -395l-94 80l265 321l-186 307z" />
    <glyph glyph-name="fi" unicode="&#xf001;" horiz-adv-x="967" 
d="M368 651l-80 -651h-195l80 651h-127l22 182h127l46 372q19 158 86 223q68 66 174 66q72 0 166 -45l-21 -172q-54 45 -102 45q-53 0 -77.5 -36.5t-36.5 -134.5l-40 -318h178l-22 -182h-178zM828 1337q44 0 76.5 -32.5t32.5 -76.5q0 -42 -31.5 -72.5t-74.5 -30.5t-74.5 32
t-31.5 76q0 42 30.5 72.5t72.5 31.5zM875 833l-102 -833h-195l102 833h195z" />
    <glyph glyph-name="fl" unicode="&#xf002;" horiz-adv-x="967" 
d="M368 651l-80 -651h-195l80 651h-127l22 182h127l46 372q19 158 86 223q68 66 174 66q72 0 166 -45l-21 -172q-54 45 -102 45q-53 0 -77.5 -36.5t-36.5 -134.5l-40 -318h178l-22 -182h-178zM956 1493l-183 -1493h-195l183 1493h195z" />
    <glyph glyph-name="daggerdbl" unicode="&#x2021;" horiz-adv-x="1161" 
d="M799 1494l-45 -364h325l-21 -168h-324l-60 -486h325l-21 -168h-324l-83 -671h-177l83 671h-333l21 168h332l60 486h-333l21 168h333l44 364h177z" />
    <glyph glyph-name="periodcentered" unicode="&#x2219;" horiz-adv-x="496" 
d="M239 548q49 2 86 -34q39 -37 39 -87q0 -37 -24 -69q-38 -48 -96 -48q-49 0 -83.5 35.5t-34.5 87.5q0 42 24 72q32 40 89 43z" />
    <glyph glyph-name="quotesinglbase" unicode="&#x201a;" horiz-adv-x="557" 
d="M384 170l-280 -469l-109 60l252 485z" />
    <glyph glyph-name="quotedblbase" unicode="&#x201e;" horiz-adv-x="895" 
d="M384 170l-280 -469l-109 60l252 485zM722 170l-280 -469l-109 60l252 485z" />
    <glyph glyph-name="perthousand" unicode="&#x2030;" horiz-adv-x="2080" 
d="M419 1385q77 0 134 -54q87 -82 87 -249q0 -170 -77 -298q-69 -115 -193 -115q-95 0 -156 70q-71 82 -71 237q0 184 89 304q76 103 187 105zM420 1277q-33 0 -63.5 -23.5t-49.5 -64.5q-48 -99 -48 -223q0 -88 28 -138t78 -50q73 0 113 88q46 99 46 220q0 89 -27.5 139.5
t-76.5 51.5zM1280 1348l-973 -1389l-83 58l973 1389zM1136 696q77 0 135 -54q87 -83 87 -250q0 -169 -77 -298q-69 -115 -194 -115q-95 0 -156 70q-71 82 -71 238q0 183 89 304q76 103 187 105zM1138 588q-70 0 -113 -88q-48 -99 -48 -225q0 -87 28 -137t78 -50q73 0 113 88
q46 98 46 220q0 90 -27.5 140.5t-76.5 51.5zM1764 696q78 0 135 -54q87 -83 87 -250q0 -169 -77 -298q-69 -115 -194 -115q-95 0 -155 70q-72 82 -72 238q0 183 89 304q77 103 187 105zM1766 588q-71 0 -113 -88q-48 -99 -48 -225q0 -87 28 -137t78 -50q73 0 113 88
q46 98 46 220q0 90 -27.5 140.5t-76.5 51.5z" />
    <glyph glyph-name="Acircumflex" unicode="&#xc2;" horiz-adv-x="1279" 
d="M384 321l-166 -321h-221l756 1463l471 -1463h-211l-99 321h-530zM472 496h385l-146 486zM784 1644l-213 -155l-88 95l321 247l227 -248l-108 -91z" />
    <glyph glyph-name="Ecircumflex" unicode="&#xca;" horiz-adv-x="963" 
d="M977 1365l-23 -188h-501l-43 -354h501l-22 -175h-501l-56 -460h501l-24 -188h-703l168 1365h703zM678 1644l-213 -155l-88 95l321 247l227 -248l-108 -91z" />
    <glyph glyph-name="Aacute" unicode="&#xc1;" horiz-adv-x="1279" 
d="M384 321l-166 -321h-221l756 1463l471 -1463h-211l-99 321h-530zM472 496h385l-146 486zM1054 1748l-290 -246l-106 65l242 278z" />
    <glyph glyph-name="Edieresis" unicode="&#xcb;" horiz-adv-x="963" 
d="M977 1365l-23 -188h-501l-43 -354h501l-22 -175h-501l-56 -460h501l-24 -188h-703l168 1365h703zM824 1754q47 0 79.5 -33.5t32.5 -81.5q0 -45 -33 -77.5t-79 -32.5t-79.5 34t-33.5 80q0 47 32.5 79t80.5 32zM493 1753q48 0 78.5 -33t30.5 -84q0 -44 -31.5 -75t-76.5 -31
q-48 0 -81.5 33t-33.5 80q0 49 31.5 79t82.5 31z" />
    <glyph glyph-name="Egrave" unicode="&#xc8;" horiz-adv-x="963" 
d="M977 1365l-23 -188h-501l-43 -354h501l-22 -175h-501l-56 -460h501l-24 -188h-703l168 1365h703zM432 1734l154 97l174 -278l-107 -65z" />
    <glyph glyph-name="Iacute" unicode="&#xcd;" horiz-adv-x="530" 
d="M476 1365l-168 -1365h-202l168 1365h202zM665 1734l-262 -246l-106 65l215 278z" />
    <glyph glyph-name="Icircumflex" unicode="&#xce;" horiz-adv-x="530" 
d="M476 1365l-168 -1365h-202l168 1365h202zM420 1644l-200 -155l-88 95l307 247l214 -248l-108 -91z" />
    <glyph glyph-name="Idieresis" unicode="&#xcf;" horiz-adv-x="530" 
d="M476 1365l-168 -1365h-202l168 1365h202zM557 1753q47 0 79 -33t32 -81q0 -45 -32.5 -77t-78.5 -32t-79 33.5t-33 79.5t32.5 78t79.5 32zM254 1753q48 0 78.5 -32.5t30.5 -84.5q0 -44 -31.5 -75t-76.5 -31q-48 0 -81.5 33t-33.5 80q0 49 31.5 79t82.5 31z" />
    <glyph glyph-name="Igrave" unicode="&#xcc;" horiz-adv-x="530" 
d="M476 1365l-168 -1365h-202l168 1365h202zM181 1734l154 97l174 -278l-107 -65z" />
    <glyph glyph-name="Oacute" unicode="&#xd3;" horiz-adv-x="1606" 
d="M844 1392q283 0 471 -156q229 -190 229 -527q0 -167 -69 -322q-91 -203 -278 -314q-169 -100 -384 -100q-213 0 -381 101q-170 103 -252 297q-61 143 -61 306q0 194 87 355q63 116 171 202q194 154 467 158zM851 1202q-205 0 -348 -123q-89 -76 -136 -186
q-45 -103 -45 -217q0 -200 121 -345q139 -168 375 -168q267 0 416 209q106 148 106 339q0 251 -159 381q-130 108 -330 110zM1217 1734l-290 -246l-106 65l242 278z" />
    <glyph glyph-name="Ocircumflex" unicode="&#xd4;" horiz-adv-x="1606" 
d="M844 1392q283 0 471 -156q229 -190 229 -527q0 -167 -69 -322q-91 -203 -278 -314q-169 -100 -384 -100q-213 0 -381 101q-170 103 -252 297q-61 143 -61 306q0 194 87 355q63 116 171 202q194 154 467 158zM851 1202q-205 0 -348 -123q-89 -76 -136 -186
q-45 -103 -45 -217q0 -200 121 -345q139 -168 375 -168q267 0 416 209q106 148 106 339q0 251 -159 381q-130 108 -330 110zM964 1644l-213 -155l-88 95l321 247l227 -248l-108 -91z" />
    <glyph glyph-name="glyph210" 
 />
    <glyph glyph-name="Ograve" unicode="&#xd2;" horiz-adv-x="1606" 
d="M844 1392q283 0 471 -156q229 -190 229 -527q0 -167 -69 -322q-91 -203 -278 -314q-169 -100 -384 -100q-213 0 -381 101q-170 103 -252 297q-61 143 -61 306q0 194 87 355q63 116 171 202q194 154 467 158zM851 1202q-205 0 -348 -123q-89 -76 -136 -186
q-45 -103 -45 -217q0 -200 121 -345q139 -168 375 -168q267 0 416 209q106 148 106 339q0 251 -159 381q-130 108 -330 110zM719 1734l154 97l174 -278l-107 -65z" />
    <glyph glyph-name="Uacute" unicode="&#xda;" horiz-adv-x="1348" 
d="M1294 1365l-99 -808q-18 -145 -47 -234.5t-79 -156.5q-71 -93 -177 -143t-233 -50q-228 0 -371 148q-120 125 -120 300q0 81 12 181l94 763h202l-97 -789q-8 -68 -8 -120q0 -111 49 -183q77 -110 236 -110q185 0 269 154q49 89 71 269l96 779h202zM1079 1734l-290 -246
l-106 65l242 278z" />
    <glyph glyph-name="Ucircumflex" unicode="&#xdb;" horiz-adv-x="1348" 
d="M1294 1365l-99 -808q-18 -145 -47 -234.5t-79 -156.5q-71 -93 -177 -143t-233 -50q-228 0 -371 148q-120 125 -120 300q0 81 12 181l94 763h202l-97 -789q-8 -68 -8 -120q0 -111 49 -183q77 -110 236 -110q185 0 269 154q49 89 71 269l96 779h202zM833 1644l-213 -155
l-88 95l321 247l227 -248l-108 -91z" />
    <glyph glyph-name="Ugrave" unicode="&#xd9;" horiz-adv-x="1348" 
d="M1294 1365l-99 -808q-18 -145 -47 -234.5t-79 -156.5q-71 -93 -177 -143t-233 -50q-228 0 -371 148q-120 125 -120 300q0 81 12 181l94 763h202l-97 -789q-8 -68 -8 -120q0 -111 49 -183q77 -110 236 -110q185 0 269 154q49 89 71 269l96 779h202zM588 1734l154 97
l174 -278l-107 -65z" />
    <glyph glyph-name="dotlessi" unicode="&#x131;" horiz-adv-x="468" 
d="M377 833l-103 -833h-195l102 833h196z" />
    <glyph glyph-name="circumflex" unicode="&#x2c6;" horiz-adv-x="1024" 
d="M607 1134l-193 -169l-82 89l294 262l209 -262l-89 -86z" />
    <glyph glyph-name="tilde" unicode="&#x2dc;" horiz-adv-x="1024" 
d="M892 1183q-82 -161 -191 -161q-53 0 -185 80q-11 7 -29 7q-32 0 -55 -40q-18 -30 -29 -46l-101 70q96 156 186 156q38 0 124 -49q68 -38 90 -38q45 0 87 90z" />
    <glyph glyph-name="macron" unicode="&#xaf;" horiz-adv-x="1024" 
d="M309 1186h567l-17 -141h-567z" />
    <glyph glyph-name="breve" unicode="&#x2d8;" horiz-adv-x="1024" 
d="M339 1265h138q-1 -19 -1 -31q0 -48 29 -79.5t73 -31.5q95 0 145 142h137q-32 -106 -81 -165q-88 -109 -208 -109q-98 0 -165 69.5t-67 171.5v33z" />
    <glyph glyph-name="dotaccent" unicode="&#x2d9;" horiz-adv-x="1024" 
d="M593 1229q43 0 74.5 -32.5t31.5 -76.5q0 -42 -31.5 -72.5t-74.5 -30.5t-74.5 32t-31.5 76q0 43 30.5 73.5t75.5 30.5z" />
    <glyph glyph-name="ring" unicode="&#x2da;" horiz-adv-x="1024" 
d="M595 1333q83 0 140 -56.5t57 -139.5q0 -80 -57.5 -137.5t-137.5 -57.5q-82 0 -139 58t-57 139q0 80 56 136.5t138 57.5zM596 1221q-35 0 -59 -24t-24 -58q0 -35 24.5 -60t59.5 -25q34 0 58.5 24.5t24.5 58.5q0 36 -24 59.5t-60 24.5z" />
    <glyph glyph-name="cedilla" unicode="&#xb8;" horiz-adv-x="1024" 
d="M610 -182l-237 -243l-104 59l177 270z" />
    <glyph glyph-name="hungarumlaut" unicode="&#x2dd;" horiz-adv-x="1024" 
d="M700 1223l-253 -258l-86 61l209 290zM1010 1223l-253 -258l-86 61l209 290z" />
    <glyph glyph-name="ogonek" unicode="&#x2db;" horiz-adv-x="1024" 
d="M711 0h150q-94 -55 -131 -92.5t-37 -76.5q0 -31 24.5 -51t62.5 -20q33 0 94 19l-33 -124q-64 -35 -131 -35q-92 0 -142 63q-38 49 -38 105q0 119 181 212z" />
    <glyph glyph-name="caron" unicode="&#x2c7;" horiz-adv-x="1024" 
d="M577 1147l193 169l83 -89l-294 -262l-209 262l89 86z" />
    <glyph glyph-name="Lslash" unicode="&#x141;" horiz-adv-x="780" 
d="M665 966l-24 -195l-257 -158l-52 -425h386l-23 -188h-589l65 530l-133 -85l24 195l133 85l79 640h202l-68 -557z" />
    <glyph glyph-name="lslash" unicode="&#x142;" horiz-adv-x="468" 
d="M524 975l-24 -202l-141 -88l-84 -685h-195l73 600l-139 -91l25 202l139 91l85 692h196l-75 -607z" />
    <glyph glyph-name="Scaron" unicode="&#x160;" horiz-adv-x="1013" 
d="M990 1191l-134 -129q-54 77 -104.5 109t-117.5 32q-95 0 -154 -61q-55 -56 -55 -135q0 -67 41.5 -115t158.5 -117q161 -95 217 -163q78 -95 78 -242q0 -161 -95 -266q-55 -62 -141 -96.5t-184 -34.5q-185 0 -312 105q-65 54 -133 174l154 104q44 -77 78 -113
q76 -80 201 -80q108 0 168.5 57.5t60.5 160.5q0 71 -44 121t-177 129q-153 90 -205 160q-69 92 -69 219q0 154 101 260q117 123 304 123q113 0 195.5 -46t167.5 -156zM666 1676l213 155l88 -96l-320 -246l-228 248l109 90z" />
    <glyph glyph-name="scaron" unicode="&#x161;" horiz-adv-x="732" 
d="M678 741l-110 -111q-78 71 -144 71q-45 0 -75 -25t-30 -63q0 -35 25 -60t103 -69q111 -62 151.5 -115t40.5 -134q0 -119 -82.5 -190.5t-218.5 -71.5q-100 0 -168.5 38t-134.5 128l128 89q79 -94 168 -94q49 0 80 26.5t31 68.5q0 38 -25 61t-128 80q-93 51 -129.5 101.5
t-36.5 127.5q0 117 91 193q82 69 203 69q142 0 261 -120zM459 1147l193 169l83 -89l-294 -262l-209 262l89 86z" />
    <glyph glyph-name="Zcaron" unicode="&#x17d;" horiz-adv-x="1129" 
d="M1040 188l-24 -188h-1005l808 1177h-575l23 188h903l-805 -1177h675zM717 1676l213 155l88 -96l-320 -246l-228 248l109 90z" />
    <glyph glyph-name="zcaron" unicode="&#x17e;" horiz-adv-x="939" 
d="M863 182l-23 -182h-856l559 651h-418l22 182h785l-562 -651h493zM557 1147l193 169l83 -89l-294 -262l-209 262l89 86z" />
    <glyph glyph-name="brokenbar" unicode="&#xa6;" horiz-adv-x="1024" 
d="M434 1365h205v-695h-205v695zM434 314h205v-655h-205v655z" />
    <glyph glyph-name="Eth" unicode="&#xd0;" horiz-adv-x="1297" 
d="M275 1365h276q156 0 240.5 -15.5t158.5 -57.5q134 -77 211 -232q76 -154 76 -344q0 -258 -134 -454q-153 -223 -426 -253q-87 -9 -224 -9h-346l81 659h-123l20 164h123zM454 1177l-43 -354h314l-21 -164h-314l-57 -471h154q194 0 285 42q139 63 210 233q52 123 52 262
q0 203 -103 326q-59 70 -139.5 98t-224.5 28h-113z" />
    <glyph glyph-name="eth" unicode="&#xf0;" horiz-adv-x="1089" 
d="M251 1388l86 113q140 -36 292 -143l202 107l111 -111l-206 -103q132 -143 199.5 -326t67.5 -400q0 -132 -26 -225t-84 -166q-128 -161 -347 -161q-214 0 -345 133q-118 120 -118 304q0 200 134 327q61 56 146 89.5t169 33.5q81 0 140 -25.5t127 -91.5q-60 280 -215 429
l-203 -104l-108 103l192 103q-84 59 -214 114zM548 696q-118 0 -196 -83q-75 -79 -75 -201q0 -113 62 -188q74 -88 198 -88q145 0 214 116q50 83 50 182q0 134 -84 204q-68 57 -169 58z" />
    <glyph glyph-name="Yacute" unicode="&#xdd;" horiz-adv-x="1056" 
d="M648 611l-76 -611h-202l77 625l-354 740h217l252 -543l359 543h232zM917 1734l-290 -246l-106 65l242 278z" />
    <glyph glyph-name="yacute" unicode="&#xfd;" horiz-adv-x="954" 
d="M985 833l-754 -1311h-223l335 581l-298 730h209l206 -532l302 532h223zM811 1223l-283 -258l-100 58l237 293z" />
    <glyph glyph-name="Thorn" unicode="&#xde;" horiz-adv-x="1010" 
d="M274 1365h202l-23 -191h75q181 0 275 -60q76 -48 120 -132q46 -90 46 -197q0 -168 -106 -286q-121 -137 -361 -137h-149l-45 -362h-202zM430 986l-55 -445h132q127 0 188 63q70 72 70 186q0 111 -86 165q-51 31 -163 31h-86z" />
    <glyph glyph-name="thorn" unicode="&#xfe;" horiz-adv-x="1109" 
d="M457 1493l-92 -748q72 61 131 85t136 24q151 0 257 -95q131 -119 131 -314q0 -178 -108 -309q-127 -156 -331 -156q-92 0 -156.5 31t-135.5 109l-74 -598h-195l242 1971h195zM597 690q-107 0 -184 -73q-93 -89 -93 -227q0 -112 72 -181q68 -65 169 -65q126 0 197 95
q66 89 66 198q0 122 -82 201q-54 51 -145 52z" />
    <glyph glyph-name="minus" unicode="&#x2212;" horiz-adv-x="1161" 
d="M134 615v164h948v-164h-948z" />
    <glyph glyph-name="multiply" unicode="&#xd7;" horiz-adv-x="1161" 
d="M197 1002l110 106l296 -297l295 299l122 -121l-296 -298l296 -297l-111 -106l-292 294l-296 -300l-122 122l296 298z" />
    <glyph glyph-name="onesuperior" unicode="&#xb9;" horiz-adv-x="792" 
d="M583 1365l-101 -819h-139l86 694h-170l63 125h261z" />
    <glyph glyph-name="twosuperior" unicode="&#xb2;" horiz-adv-x="792" 
d="M685 671l-16 -125h-569l346 366q100 106 123 140.5t23 80.5q0 57 -35.5 90t-96.5 33q-71 0 -104 -39t-40 -128h-132q8 127 53 188q74 101 227 101q111 0 182 -58q82 -67 82 -184q0 -70 -30 -122.5t-125 -151.5l-184 -191h296z" />
    <glyph glyph-name="threesuperior" unicode="&#xb3;" horiz-adv-x="792" 
d="M142 760h130q18 -104 135 -104q66 0 106.5 37t40.5 97q0 62 -40.5 90t-129.5 29l14 120q24 -1 38 -1q127 0 127 127q0 47 -28.5 73.5t-78.5 26.5q-58 0 -85.5 -30t-32.5 -100h-124q5 112 54 170q68 82 202 82q104 0 167 -58q61 -57 61 -155q0 -137 -125 -193
q117 -48 117 -186q0 -106 -71 -176q-78 -75 -214 -75q-115 0 -182.5 58t-80.5 168z" />
    <glyph glyph-name="onehalf" unicode="&#xbd;" horiz-adv-x="1821" 
d="M556 1365l-101 -819h-139l86 694h-170l63 125h261zM1465 1348l-973 -1389l-83 58l973 1389zM1674 125l-15 -125h-570l347 366q102 107 124 141t22 80q0 57 -35.5 90t-97.5 33q-70 0 -103.5 -39t-39.5 -128h-133q8 127 53 188q75 101 227 101q112 0 183 -58
q82 -68 82 -184q0 -70 -29.5 -122t-125.5 -152l-184 -191h295z" />
    <glyph glyph-name="onequarter" unicode="&#xbc;" horiz-adv-x="1821" 
d="M556 1365l-101 -819h-139l86 694h-170l63 125h261zM1465 1348l-973 -1389l-83 58l973 1389zM1613 149l-19 -149h-139l20 149h-401l634 773l-80 -656h79l-15 -117h-79zM1489 266l31 255l-204 -255h173z" />
    <glyph glyph-name="threequarters" unicode="&#xbe;" horiz-adv-x="1821" 
d="M115 760h130q18 -104 135 -104q66 0 106.5 37t40.5 97q0 61 -40.5 90t-129.5 29l14 120q24 -1 38 -1q127 0 127 127q0 47 -28.5 73.5t-78.5 26.5q-58 0 -85.5 -30t-32.5 -100h-124q13 252 256 252q104 0 167 -58q61 -57 61 -155q0 -137 -125 -193q117 -48 117 -185
q0 -107 -71 -177q-78 -75 -214 -75q-115 0 -182.5 58t-80.5 168zM1465 1348l-973 -1389l-83 58l973 1389zM1614 149l-20 -149h-139l20 149h-401l635 773l-81 -656h79l-15 -117h-78zM1489 266l31 255l-204 -255h173z" />
    <glyph glyph-name="glyph247" 
 />
    <glyph glyph-name="glyph248" 
 />
    <glyph glyph-name="glyph249" 
 />
    <glyph glyph-name="glyph250" 
 />
    <glyph glyph-name="glyph251" 
 />
    <glyph glyph-name="glyph252" 
 />
    <glyph glyph-name="glyph253" 
 />
    <glyph glyph-name="glyph254" 
 />
    <glyph glyph-name="glyph255" 
 />
    <glyph glyph-name="glyph256" 
 />
    <glyph glyph-name="glyph257" 
 />
    <glyph glyph-name="nbspace" unicode="&#xa0;" 
 />
    <glyph glyph-name="sfthyphen" unicode="&#xad;" horiz-adv-x="382" 
d="M387 508l-19 -155h-382l19 155h382z" />
    <glyph glyph-name="middot" unicode="&#xb7;" horiz-adv-x="496" 
d="M239 548q49 2 86 -34q39 -37 39 -87q0 -37 -24 -69q-38 -48 -96 -48q-49 0 -83.5 35.5t-34.5 87.5q0 42 24 72q32 40 89 43z" />
    <glyph glyph-name="glyph261" horiz-adv-x="1024" 
d="M661 1880q83 0 140 -56.5t57 -139.5q0 -80 -57.5 -137.5t-137.5 -57.5q-82 0 -139 58t-57 139q0 80 56 136.5t138 57.5zM661 1765q-33 0 -56.5 -23t-23.5 -56q0 -34 24 -58t57 -24t57 24t24 57q0 34 -23.5 57t-58.5 23z" />
    <glyph glyph-name="glyph262" horiz-adv-x="1024" 
d="M984 1683q-82 -160 -197 -160q-57 0 -160 56q-52 28 -74 28q-33 0 -92 -85l-102 79q67 90 108 122.5t89 32.5q44 0 128 -49q67 -38 103 -38q58 0 94 90z" />
    <glyph glyph-name="glyph263" horiz-adv-x="1024" 
d="M641 1676l213 155l88 -96l-320 -246l-228 248l109 90z" />
    <glyph glyph-name="glyph264" horiz-adv-x="1024" 
d="M421 1734l154 97l174 -278l-107 -65z" />
    <glyph glyph-name="glyph265" horiz-adv-x="1024" 
d="M960 1734l-290 -246l-106 65l242 278z" />
    <glyph glyph-name="glyph266" horiz-adv-x="1024" 
d="M821 1754q47 0 79.5 -33.5t32.5 -81.5q0 -45 -33 -77.5t-79 -32.5t-79.5 34t-33.5 80q0 47 32.5 79t80.5 32zM490 1753q48 0 78.5 -33t30.5 -84q0 -44 -31.5 -75t-76.5 -31q-48 0 -81.5 33t-33.5 80q0 49 31.5 79t82.5 31z" />
    <glyph glyph-name="glyph267" horiz-adv-x="1024" 
d="M679 1644l-213 -155l-88 95l321 247l227 -248l-108 -91z" />
    <glyph glyph-name="glyph268" 
 />
    </font>
</defs>
</svg>
